<?xml version="1.0" encoding="utf-8"?>
<!-- Generator: Adobe Illustrator 22.1.0, SVG Export Plug-In . SVG Version: 6.00 Build 0)  -->
<svg version="1.1" id="Layer_1" xmlns="http://www.w3.org/2000/svg" xmlns:xlink="http://www.w3.org/1999/xlink" x="0px" y="0px"
	 viewBox="0 0 1280 1024" style="enable-background:new 0 0 1280 1024;" xml:space="preserve">
<style type="text/css">
	.st0{fill:#477289;}
	.st1{display:none;fill:#8BC751;}
	.st2{fill:#F7A5AA;}
	.st3{fill:#FCC5A1;}
	.st4{fill:#F5E0CD;}
	.st5{fill:#FF7BAC;}
	.st6{fill:#FFFFFF;}
	.st7{fill:#666666;}
	.st8{fill:#ED7C31;}
	.st9{fill:#F09B36;}
</style>
<ellipse class="st0" cx="656" cy="512.5" rx="444.2" ry="436.5"/>
<path class="st1" d="M1024,440c0,0-42,61-37,83s30,11,30,11l11-7v-19L1024,440z"/>
<g>
	<path class="st2" d="M957.1,694H354.8c-2.8,0-5-2.2-5-5v-23.6c0-2.8,2.2-5,5-5h602.4c2.8,0,5,2.2,5,5V689
		C962.1,691.8,959.9,694,957.1,694z"/>
	<path class="st3" d="M893.8,524.4v136H418.1v-136c0-16.2,13.9-29.4,31.1-29.4h413.6C879.9,495,893.8,508.1,893.8,524.4z"/>
	<g>
		<path class="st4" d="M816.1,486.9H495.8v-54.2c12-1,24.1-1.2,36.1-1.4c95-1.5,190.9-2.9,284.2,14.2V486.9z"/>
	</g>
	<g>
		<g>
			<path class="st4" d="M902.7,526.2v55.2c0,11.5-11.2,19.2-21.1,14.5c-25.1-12-46.2-38.5-74.5-38.7c-31.6-0.2-57.5,33.3-88.8,28.4
				c-20.9-3.3-36.8-23.3-57.9-24.1c-28-1-48.6,31.9-76.6,30.3c-25.1-1.4-40.7-29.7-65.2-35.8c-20.4-5.1-40.8,6.4-59,16.8
				c-10,5.7-21.1,11.2-32.3,13.7c-9.4,2.1-18.2-5.4-18.2-15.5v-44.9c0-17.7,14.4-32,32.2-32h429.1
				C888.3,494.2,902.7,508.5,902.7,526.2z"/>
		</g>
	</g>
	<path class="st3" d="M816.1,401v94H495.8v-94c0-17.2,13.9-31.1,31.1-31.1H785C802.2,369.9,816.1,383.8,816.1,401z"/>
	<g>
		<path class="st4" d="M824.3,401.1l-0.1,17c0,7-7.1,11.7-13.2,8.5c0,0-0.1,0-0.1-0.1c-10.5-5.5-19.7-13.2-30.3-18.7
			c-10.6-5.5-23.5-8.5-34.4-3.7c-11.1,4.8-18.6,17-30.7,18.8c-15.9,2.4-27.7-14.3-43-19.1c-15.2-4.7-31.3,2.9-45.4,10.3
			c-14.1,7.3-30.4,14.8-45.4,9.6c-8.9-3-15.7-10-23-16c-7.2-6-16.2-11.3-25.5-10c-9.2,1.3-16.1,8.5-23,14.6
			c-2.7,2.4-5.9,4.8-9.2,6.6c-6.2,3.4-13.5-1.3-13.5-8.5l0.1-11.5c0.1-17.7,14.8-32,32.9-31.9l271.4,1.6
			C809.9,368.9,824.4,383.4,824.3,401.1z"/>
	</g>
	<g>
		<polygon class="st4" points="893.8,617.7 893.8,627.9 418.1,626.7 418.1,616.5 		"/>
	</g>
	<g>
		<polygon class="st4" points="893.8,640.4 893.8,647.7 418.1,646.5 418.1,639.1 		"/>
	</g>
	<path class="st5" d="M667.7,282.6v85.1h-23.4v-85.1c0-1.9,1.5-3.4,3.4-3.4h16.6C666.1,279.3,667.7,280.8,667.7,282.6z"/>
	<g>
		<polygon class="st6" points="667.7,283.2 667.7,289.4 644.3,298 644.3,291.7 		"/>
	</g>
	<g>
		<polygon class="st6" points="667.7,303.5 667.7,309.7 644.3,318.2 644.3,312 		"/>
	</g>
	<g>
		<polygon class="st6" points="667.7,303.5 667.7,309.7 644.3,318.2 644.3,312 		"/>
	</g>
	<g>
		<polygon class="st6" points="667.7,323.7 667.7,329.9 644.3,338.4 644.3,332.2 		"/>
	</g>
	<g>
		<polygon class="st6" points="667.7,323.7 667.7,329.9 644.3,338.4 644.3,332.2 		"/>
	</g>
	<g>
		<polygon class="st6" points="667.7,343.9 667.7,350.1 644.3,358.7 644.3,352.4 		"/>
	</g>
	<rect x="654.7" y="271.2" class="st7" width="2.5" height="8"/>
	<path class="st8" d="M670.6,258.9c0-8.4-14.6-23.6-14.6-23.6s-14.6,15.2-14.6,23.6c0,8.4,6.5,15.2,14.6,15.2
		C664,274.1,670.6,267.3,670.6,258.9z"/>
	<path class="st9" d="M664,266.1c0-4.4-8-12.4-8-12.4s-8,8-8,12.4s3.6,8,8,8S664,270.5,664,266.1z"/>
</g>
<g>
	<path class="st2" d="M957.1,694H354.8c-2.8,0-5-2.2-5-5v-23.6c0-2.8,2.2-5,5-5h602.4c2.8,0,5,2.2,5,5V689
		C962.1,691.8,959.9,694,957.1,694z"/>
	<path class="st3" d="M893.8,524.4v136H418.1v-136c0-16.2,13.9-29.4,31.1-29.4h413.6C879.9,495,893.8,508.1,893.8,524.4z"/>
	<g>
		<path class="st4" d="M816.1,486.9H495.8v-54.2c12-1,24.1-1.2,36.1-1.4c95-1.5,190.9-2.9,284.2,14.2V486.9z"/>
	</g>
	<g>
		<g>
			<path class="st4" d="M902.7,526.2v55.2c0,11.5-11.2,19.2-21.1,14.5c-25.1-12-46.2-38.5-74.5-38.7c-31.6-0.2-57.5,33.3-88.8,28.4
				c-20.9-3.3-36.8-23.3-57.9-24.1c-28-1-48.6,31.9-76.6,30.3c-25.1-1.4-40.7-29.7-65.2-35.8c-20.4-5.1-40.8,6.4-59,16.8
				c-10,5.7-21.1,11.2-32.3,13.7c-9.4,2.1-18.2-5.4-18.2-15.5v-44.9c0-17.7,14.4-32,32.2-32h429.1
				C888.3,494.2,902.7,508.5,902.7,526.2z"/>
		</g>
	</g>
	<path class="st3" d="M816.1,401v94H495.8v-94c0-17.2,13.9-31.1,31.1-31.1H785C802.2,369.9,816.1,383.8,816.1,401z"/>
	<g>
		<path class="st4" d="M824.3,401.1l-0.1,17c0,7-7.1,11.7-13.2,8.5c0,0-0.1,0-0.1-0.1c-10.5-5.5-19.7-13.2-30.3-18.7
			c-10.6-5.5-23.5-8.5-34.4-3.7c-11.1,4.8-18.6,17-30.7,18.8c-15.9,2.4-27.7-14.3-43-19.1c-15.2-4.7-31.3,2.9-45.4,10.3
			c-14.1,7.3-30.4,14.8-45.4,9.6c-8.9-3-15.7-10-23-16c-7.2-6-16.2-11.3-25.5-10c-9.2,1.3-16.1,8.5-23,14.6
			c-2.7,2.4-5.9,4.8-9.2,6.6c-6.2,3.4-13.5-1.3-13.5-8.5l0.1-11.5c0.1-17.7,14.8-32,32.9-31.9l271.4,1.6
			C809.9,368.9,824.4,383.4,824.3,401.1z"/>
	</g>
	<g>
		<polygon class="st4" points="893.8,617.7 893.8,627.9 418.1,626.7 418.1,616.5 		"/>
	</g>
	<g>
		<polygon class="st4" points="893.8,640.4 893.8,647.7 418.1,646.5 418.1,639.1 		"/>
	</g>
	<path class="st5" d="M667.7,282.6v85.1h-23.4v-85.1c0-1.9,1.5-3.4,3.4-3.4h16.6C666.1,279.3,667.7,280.8,667.7,282.6z"/>
	<g>
		<polygon class="st6" points="667.7,283.2 667.7,289.4 644.3,298 644.3,291.7 		"/>
	</g>
	<g>
		<polygon class="st6" points="667.7,303.5 667.7,309.7 644.3,318.2 644.3,312 		"/>
	</g>
	<g>
		<polygon class="st6" points="667.7,303.5 667.7,309.7 644.3,318.2 644.3,312 		"/>
	</g>
	<g>
		<polygon class="st6" points="667.7,323.7 667.7,329.9 644.3,338.4 644.3,332.2 		"/>
	</g>
	<g>
		<polygon class="st6" points="667.7,323.7 667.7,329.9 644.3,338.4 644.3,332.2 		"/>
	</g>
	<g>
		<polygon class="st6" points="667.7,343.9 667.7,350.1 644.3,358.7 644.3,352.4 		"/>
	</g>
	<rect x="654.7" y="271.2" class="st7" width="2.5" height="8"/>
	<path class="st8" d="M670.6,258.9c0-8.4-14.6-23.6-14.6-23.6s-14.6,15.2-14.6,23.6c0,8.4,6.5,15.2,14.6,15.2
		C664,274.1,670.6,267.3,670.6,258.9z"/>
	<path class="st9" d="M664,266.1c0-4.4-8-12.4-8-12.4s-8,8-8,12.4s3.6,8,8,8S664,270.5,664,266.1z"/>
</g>
</svg>
