<?xml version="1.0" encoding="utf-8"?>
<!-- Generator: Adobe Illustrator 22.1.0, SVG Export Plug-In . SVG Version: 6.00 Build 0)  -->
<svg version="1.1" id="Layer_1" xmlns="http://www.w3.org/2000/svg" xmlns:xlink="http://www.w3.org/1999/xlink" x="0px" y="0px"
	 viewBox="0 0 1280 800" style="enable-background:new 0 0 1280 800;" xml:space="preserve">
<style type="text/css">
	.st0{fill:#477289;}
	.st1{display:none;fill:#8BC751;}
	.st2{fill:#F7A5AA;}
	.st3{fill:#FCC5A1;}
	.st4{fill:#F5E0CD;}
	.st5{fill:#FF7BAC;}
	.st6{fill:#FFFFFF;}
	.st7{fill:#666666;}
	.st8{fill:#ED7C31;}
	.st9{fill:#F09B36;}
</style>
<ellipse class="st0" cx="654.9" cy="399.8" rx="306.1" ry="300.8"/>
<path class="st1" d="M1024,328c0,0-42,61-37,83s30,11,30,11l11-7v-19L1024,328z"/>
<g>
	<path class="st2" d="M860.9,524.9h-412c-2.8,0-5-2.2-5-5v-13.2c0-2.8,2.2-5,5-5h412c2.8,0,5,2.2,5,5v13.2
		C865.9,522.7,863.7,524.9,860.9,524.9z"/>
	<path class="st3" d="M818.8,408v93.7H491V408c0-11.2,9.6-20.3,21.4-20.3h285C809.2,387.7,818.8,396.8,818.8,408z"/>
	<g>
		<path class="st4" d="M765.3,382.2H544.5v-37.3c8.3-0.7,16.6-0.9,24.9-1c65.5-1,131.6-2,195.9,9.8V382.2z"/>
	</g>
	<g>
		<g>
			<path class="st4" d="M825,409.3v38.1c0,7.9-7.7,13.2-14.6,10c-17.3-8.3-31.9-26.5-51.3-26.7c-21.8-0.1-39.7,22.9-61.2,19.6
				c-14.4-2.3-25.4-16-39.9-16.6c-19.3-0.7-33.5,22-52.8,20.9c-17.3-1-28.1-20.5-44.9-24.7c-14.1-3.5-28.1,4.4-40.7,11.6
				c-6.9,3.9-14.5,7.7-22.2,9.5c-6.5,1.4-12.5-3.7-12.5-10.7v-31c0-12.2,9.9-22,22.2-22h295.7C815,387.2,825,397.1,825,409.3z"/>
		</g>
	</g>
	<path class="st3" d="M765.3,323v64.7H544.5V323c0-11.8,9.6-21.4,21.4-21.4h177.9C755.7,301.6,765.3,311.2,765.3,323z"/>
	<g>
		<path class="st4" d="M770.9,323.1l-0.1,11.7c0,4.8-4.9,8-9.1,5.9c0,0-0.1,0-0.1,0c-7.3-3.8-13.6-9.1-20.9-12.9
			c-7.3-3.8-16.2-5.8-23.7-2.6c-7.7,3.3-12.8,11.7-21.1,13c-10.9,1.6-19.1-9.9-29.7-13.1c-10.5-3.3-21.6,2-31.3,7.1
			c-9.7,5.1-20.9,10.2-31.3,6.6c-6.2-2.1-10.9-6.9-15.8-11c-5-4.1-11.1-7.8-17.6-6.9c-6.3,0.9-11.1,5.9-15.9,10.1
			c-1.9,1.7-4,3.3-6.3,4.6c-4.2,2.3-9.3-0.9-9.3-5.9l0-7.9c0.1-12.2,10.2-22.1,22.6-22l187,1.1C761,300.9,771,310.8,770.9,323.1z"/>
	</g>
	<g>
		<polygon class="st4" points="818.8,472.3 818.8,479.4 491,478.5 491,471.5 		"/>
	</g>
	<g>
		<polygon class="st4" points="818.8,487.9 818.8,493 491,492.1 491,487.1 		"/>
	</g>
	<path class="st5" d="M663,241.4v58.6h-16.1v-58.6c0-1.3,1-2.3,2.3-2.3h11.5C661.9,239.1,663,240.1,663,241.4z"/>
	<g>
		<polygon class="st6" points="663,241.8 663,246.1 646.8,252 646.8,247.7 		"/>
	</g>
	<g>
		<polygon class="st6" points="663,255.8 663,260 646.8,265.9 646.8,261.6 		"/>
	</g>
	<g>
		<polygon class="st6" points="663,255.8 663,260 646.8,265.9 646.8,261.6 		"/>
	</g>
	<g>
		<polygon class="st6" points="663,269.7 663,274 646.8,279.9 646.8,275.6 		"/>
	</g>
	<g>
		<polygon class="st6" points="663,269.7 663,274 646.8,279.9 646.8,275.6 		"/>
	</g>
	<g>
		<polygon class="st6" points="663,283.6 663,287.9 646.8,293.8 646.8,289.5 		"/>
	</g>
	<rect x="654" y="233.5" class="st7" width="1.8" height="5.5"/>
	<path class="st8" d="M665,225.1c0-5.8-10.1-16.2-10.1-16.2s-10.1,10.4-10.1,16.2s4.5,10.5,10.1,10.5S665,230.9,665,225.1z"/>
	<path class="st9" d="M660.4,230c0-3.1-5.5-8.6-5.5-8.6s-5.5,5.5-5.5,8.6s2.5,5.5,5.5,5.5C657.9,235.6,660.4,233.1,660.4,230z"/>
</g>
<g>
	<path class="st2" d="M860.9,524.9h-412c-2.8,0-5-2.2-5-5v-13.2c0-2.8,2.2-5,5-5h412c2.8,0,5,2.2,5,5v13.2
		C865.9,522.7,863.7,524.9,860.9,524.9z"/>
	<path class="st3" d="M818.8,408v93.7H491V408c0-11.2,9.6-20.3,21.4-20.3h285C809.2,387.7,818.8,396.8,818.8,408z"/>
	<g>
		<path class="st4" d="M765.3,382.2H544.5v-37.3c8.3-0.7,16.6-0.9,24.9-1c65.5-1,131.6-2,195.9,9.8V382.2z"/>
	</g>
	<g>
		<g>
			<path class="st4" d="M825,409.3v38.1c0,7.9-7.7,13.2-14.6,10c-17.3-8.3-31.9-26.5-51.3-26.7c-21.8-0.1-39.7,22.9-61.2,19.6
				c-14.4-2.3-25.4-16-39.9-16.6c-19.3-0.7-33.5,22-52.8,20.9c-17.3-1-28.1-20.5-44.9-24.7c-14.1-3.5-28.1,4.4-40.7,11.6
				c-6.9,3.9-14.5,7.7-22.2,9.5c-6.5,1.4-12.5-3.7-12.5-10.7v-31c0-12.2,9.9-22,22.2-22h295.7C815,387.2,825,397.1,825,409.3z"/>
		</g>
	</g>
	<path class="st3" d="M765.3,323v64.7H544.5V323c0-11.8,9.6-21.4,21.4-21.4h177.9C755.7,301.6,765.3,311.2,765.3,323z"/>
	<g>
		<path class="st4" d="M770.9,323.1l-0.1,11.7c0,4.8-4.9,8-9.1,5.9c0,0-0.1,0-0.1,0c-7.3-3.8-13.6-9.1-20.9-12.9
			c-7.3-3.8-16.2-5.8-23.7-2.6c-7.7,3.3-12.8,11.7-21.1,13c-10.9,1.6-19.1-9.9-29.7-13.1c-10.5-3.3-21.6,2-31.3,7.1
			c-9.7,5.1-20.9,10.2-31.3,6.6c-6.2-2.1-10.9-6.9-15.8-11c-5-4.1-11.1-7.8-17.6-6.9c-6.3,0.9-11.1,5.9-15.9,10.1
			c-1.9,1.7-4,3.3-6.3,4.6c-4.2,2.3-9.3-0.9-9.3-5.9l0-7.9c0.1-12.2,10.2-22.1,22.6-22l187,1.1C761,300.9,771,310.8,770.9,323.1z"/>
	</g>
	<g>
		<polygon class="st4" points="818.8,472.3 818.8,479.4 491,478.5 491,471.5 		"/>
	</g>
	<g>
		<polygon class="st4" points="818.8,487.9 818.8,493 491,492.1 491,487.1 		"/>
	</g>
	<path class="st5" d="M663,241.4v58.6h-16.1v-58.6c0-1.3,1-2.3,2.3-2.3h11.5C661.9,239.1,663,240.1,663,241.4z"/>
	<g>
		<polygon class="st6" points="663,241.8 663,246.1 646.8,252 646.8,247.7 		"/>
	</g>
	<g>
		<polygon class="st6" points="663,255.8 663,260 646.8,265.9 646.8,261.6 		"/>
	</g>
	<g>
		<polygon class="st6" points="663,255.8 663,260 646.8,265.9 646.8,261.6 		"/>
	</g>
	<g>
		<polygon class="st6" points="663,269.7 663,274 646.8,279.9 646.8,275.6 		"/>
	</g>
	<g>
		<polygon class="st6" points="663,269.7 663,274 646.8,279.9 646.8,275.6 		"/>
	</g>
	<g>
		<polygon class="st6" points="663,283.6 663,287.9 646.8,293.8 646.8,289.5 		"/>
	</g>
	<rect x="654" y="233.5" class="st7" width="1.8" height="5.5"/>
	<path class="st8" d="M665,225.1c0-5.8-10.1-16.2-10.1-16.2s-10.1,10.4-10.1,16.2s4.5,10.5,10.1,10.5S665,230.9,665,225.1z"/>
	<path class="st9" d="M660.4,230c0-3.1-5.5-8.6-5.5-8.6s-5.5,5.5-5.5,8.6s2.5,5.5,5.5,5.5C657.9,235.6,660.4,233.1,660.4,230z"/>
</g>
</svg>
