<?xml version="1.0" encoding="utf-8"?>
<!-- Generator: Adobe Illustrator 22.1.0, SVG Export Plug-In . SVG Version: 6.00 Build 0)  -->
<svg version="1.1" id="Layer_1" xmlns="http://www.w3.org/2000/svg" xmlns:xlink="http://www.w3.org/1999/xlink" x="0px" y="0px"
	 viewBox="0 0 1280 800" style="enable-background:new 0 0 1280 800;" xml:space="preserve">
<style type="text/css">
	.st0{fill:url(#SVGID_1_);stroke:#7C7C7C;stroke-width:16;stroke-miterlimit:10;}
	.st1{fill:#FFE5C5;}
	.st2{fill:#723E12;}
	.st3{opacity:0.21;}
	.st4{fill:#F4D09F;}
	.st5{fill:#EAB071;}
	.st6{fill:#E59F6A;}
	.st7{fill:#FFFFFF;}
	.st8{fill:#723E12;stroke:#723E12;stroke-miterlimit:10;}
	.st9{font-family:'MyriadPro-Regular';}
	.st10{font-size:53.0699px;}
	.st11{letter-spacing:3.8;}
	.st12{fill:#FF7316;stroke:#FF7316;stroke-width:2;stroke-miterlimit:10;}
	.st13{fill:#7C7C7C;stroke:#7C7C7C;stroke-width:2;stroke-miterlimit:10;}
	.st14{fill:#7C7C7C;}
</style>
<linearGradient id="SVGID_1_" gradientUnits="userSpaceOnUse" x1="438.08" y1="132.8099" x2="826.798" y2="668.0223">
	<stop  offset="0" style="stop-color:#FFFFFF"/>
	<stop  offset="0" style="stop-color:#FDFED4"/>
	<stop  offset="1" style="stop-color:#C5EAE9"/>
</linearGradient>
<rect x="366.5" y="61.5" class="st0" width="532" height="678"/>
<ellipse class="st1" cx="667.5" cy="315.5" rx="143.5" ry="139.5"/>
<path class="st1" d="M753.6,210l1.3,1c3.6,2.7,4.4,7.8,1.7,11.4l-19.5,26.2c-2.7,3.6-7.8,4.4-11.4,1.7l-1.3-1
	c-3.6-2.7-4.4-7.8-1.7-11.4l19.5-26.2C744.8,208.1,749.9,207.3,753.6,210z"/>
<circle class="st2" cx="647" cy="255" r="4"/>
<circle class="st2" cx="665.5" cy="249.5" r="2.5"/>
<circle class="st2" cx="684" cy="250" r="3"/>
<circle class="st2" cx="632.5" cy="255.5" r="3.5"/>
<circle class="st2" cx="654" cy="248" r="1"/>
<circle class="st2" cx="666" cy="245" r="1"/>
<circle class="st2" cx="672.5" cy="256.5" r="0.5"/>
<g>
	<polygon class="st3" points="614.4,409.5 592.6,429.3 893.2,634 892.8,578 	"/>
	<path class="st4" d="M716.7,270.8c-5.5-3.6-11.7-6.6-18.2-8.7c-3.6-1.2-7.4-2.1-11.2-2.8c-23.3,6.4-31.7,15.1-34.4,23
		c-1.8,5.4-0.5,9.3-4.3,15.3c-8.7,13.8-26.6,10.6-37.2,19.1c-0.6,0.5-1,1.1-1,1.8c-1.3,11.9-0.7,21.5,2.5,30.7
		c1.2,1.8,2.5,3.6,3.9,5.3c0.9,1,1.8,2.1,2.7,3.1c3.7,3.8,7.9,7.3,12.5,10.4c11.6,7.7,26.1,13,41.5,16.1c34.9,7,63.9-28.6,68.8-63
		C745.3,300.4,734.1,282.2,716.7,270.8z M716.7,270.8c-5.5-3.6-11.7-6.6-18.2-8.7c-3.6-1.2-7.4-2.1-11.2-2.8
		c-23.3,6.4-31.7,15.1-34.4,23c-1.8,5.4-0.5,9.3-4.3,15.3c-8.7,13.8-26.6,10.6-37.2,19.1c-0.6,0.5-1,1.1-1,1.8
		c-1.3,11.9-0.7,21.5,2.5,30.7c1.2,1.8,2.5,3.6,3.9,5.3c0.9,1,1.8,2.1,2.7,3.1c3.7,3.8,7.9,7.3,12.5,10.4
		c11.6,7.7,26.1,13,41.5,16.1c34.9,7,63.9-28.6,68.8-63C745.3,300.4,734.1,282.2,716.7,270.8z M716.7,270.8
		c-5.5-3.6-11.7-6.6-18.2-8.7c-3.6-1.2-7.4-2.1-11.2-2.8c-23.3,6.4-31.7,15.1-34.4,23c-1.8,5.4-0.5,9.3-4.3,15.3
		c-8.7,13.8-26.6,10.6-37.2,19.1c-0.6,0.5-1,1.1-1,1.8c-1.3,11.9-0.7,21.5,2.5,30.7c1.2,1.8,2.5,3.6,3.9,5.3c0.9,1,1.8,2.1,2.7,3.1
		c3.7,3.8,7.9,7.3,12.5,10.4c11.6,7.7,26.1,13,41.5,16.1c34.9,7,63.9-28.6,68.8-63C745.3,300.4,734.1,282.2,716.7,270.8z
		 M716.7,270.8c-5.5-3.6-11.7-6.6-18.2-8.7c-3.6-1.2-7.4-2.1-11.2-2.8c-23.3,6.4-31.7,15.1-34.4,23c-1.8,5.4-0.5,9.3-4.3,15.3
		c-8.7,13.8-26.6,10.6-37.2,19.1c-0.6,0.5-1,1.1-1,1.8c-1.3,11.9-0.7,21.5,2.5,30.7c1.2,1.8,2.5,3.6,3.9,5.3c0.9,1,1.8,2.1,2.7,3.1
		c3.7,3.8,7.9,7.3,12.5,10.4c11.6,7.7,26.1,13,41.5,16.1c34.9,7,63.9-28.6,68.8-63C745.3,300.4,734.1,282.2,716.7,270.8z
		 M716.7,270.8c-5.5-3.6-11.7-6.6-18.2-8.7c-3.6-1.2-7.4-2.1-11.2-2.8c-23.3,6.4-31.7,15.1-34.4,23c-1.8,5.4-0.5,9.3-4.3,15.3
		c-8.7,13.8-26.6,10.6-37.2,19.1c-0.6,0.5-1,1.1-1,1.8c-1.3,11.9-0.7,21.5,2.5,30.7c1.2,1.8,2.5,3.6,3.9,5.3c0.9,1,1.8,2.1,2.7,3.1
		c3.7,3.8,7.9,7.3,12.5,10.4c11.6,7.7,26.1,13,41.5,16.1c34.9,7,63.9-28.6,68.8-63C745.3,300.4,734.1,282.2,716.7,270.8z
		 M716.7,270.8c-5.5-3.6-11.7-6.6-18.2-8.7c-3.6-1.2-7.4-2.1-11.2-2.8c-23.3,6.4-31.7,15.1-34.4,23c-1.8,5.4-0.5,9.3-4.3,15.3
		c-8.7,13.8-26.6,10.6-37.2,19.1c-0.6,0.5-1,1.1-1,1.8c-1.3,11.9-0.7,21.5,2.5,30.7c1.2,1.8,2.5,3.6,3.9,5.3c0.9,1,1.8,2.1,2.7,3.1
		c3.7,3.8,7.9,7.3,12.5,10.4c11.6,7.7,26.1,13,41.5,16.1c34.9,7,63.9-28.6,68.8-63C745.3,300.4,734.1,282.2,716.7,270.8z
		 M716.7,270.8c-5.5-3.6-11.7-6.6-18.2-8.7c-3.6-1.2-7.4-2.1-11.2-2.8c-23.3,6.4-31.7,15.1-34.4,23c-1.8,5.4-0.5,9.3-4.3,15.3
		c-8.7,13.8-26.6,10.6-37.2,19.1c-0.6,0.5-1,1.1-1,1.8c-1.3,11.9-0.7,21.5,2.5,30.7c1.2,1.8,2.5,3.6,3.9,5.3c0.9,1,1.8,2.1,2.7,3.1
		c3.7,3.8,7.9,7.3,12.5,10.4c11.6,7.7,26.1,13,41.5,16.1c34.9,7,63.9-28.6,68.8-63C745.3,300.4,734.1,282.2,716.7,270.8z
		 M716.7,270.8c-5.5-3.6-11.7-6.6-18.2-8.7c-3.6-1.2-7.4-2.1-11.2-2.8c-23.3,6.4-31.7,15.1-34.4,23c-1.8,5.4-0.5,9.3-4.3,15.3
		c-8.7,13.8-26.6,10.6-37.2,19.1c-0.6,0.5-1,1.1-1,1.8c-1.3,11.9-0.7,21.5,2.5,30.7c1.2,1.8,2.5,3.6,3.9,5.3c0.9,1,1.8,2.1,2.7,3.1
		c3.7,3.8,7.9,7.3,12.5,10.4c11.6,7.7,26.1,13,41.5,16.1c34.9,7,63.9-28.6,68.8-63C745.3,300.4,734.1,282.2,716.7,270.8z
		 M716.7,270.8c-5.5-3.6-11.7-6.6-18.2-8.7c-3.6-1.2-7.4-2.1-11.2-2.8c-23.3,6.4-31.7,15.1-34.4,23c-1.8,5.4-0.5,9.3-4.3,15.3
		c-8.7,13.8-26.6,10.6-37.2,19.1c-0.6,0.5-1,1.1-1,1.8c-1.3,11.9-0.7,21.5,2.5,30.7c1.2,1.8,2.5,3.6,3.9,5.3c0.9,1,1.8,2.1,2.7,3.1
		c3.7,3.8,7.9,7.3,12.5,10.4c11.6,7.7,26.1,13,41.5,16.1c34.9,7,63.9-28.6,68.8-63C745.3,300.4,734.1,282.2,716.7,270.8z
		 M716.7,270.8c-5.5-3.6-11.7-6.6-18.2-8.7c-3.6-1.2-7.4-2.1-11.2-2.8c-23.3,6.4-31.7,15.1-34.4,23c-1.8,5.4-0.5,9.3-4.3,15.3
		c-8.7,13.8-26.6,10.6-37.2,19.1c-0.6,0.5-1,1.1-1,1.8c-1.3,11.9-0.7,21.5,2.5,30.7c1.2,1.8,2.5,3.6,3.9,5.3c0.9,1,1.8,2.1,2.7,3.1
		c3.7,3.8,7.9,7.3,12.5,10.4c11.6,7.7,26.1,13,41.5,16.1c34.9,7,63.9-28.6,68.8-63C745.3,300.4,734.1,282.2,716.7,270.8z M811,302.6
		c-0.4-3.5-1-7-1.8-10.4c-1.2-5.6-2.7-11.2-4.5-16.5c-4.2-12.4-10.2-23.9-17.5-34.4c-6.5-9.4-14.2-17.9-22.8-25.3
		c-2-1.7-4-3.4-6-4.9l0,0c-1.2-1-2.5-1.9-3.8-2.8c-22.8-16.5-50.8-26.2-81.1-26.2c-76.6,0-138.7,62.2-138.7,139S597,460,673.6,460
		c5.1,0,10.2-0.3,15.2-0.8c69.4-7.6,123.5-66.5,123.5-138.2C812.2,314.8,811.8,308.6,811,302.6z M673.6,407c-0.7,0-1.5,0-2.2,0
		c-0.7,0-1.4,0-2.1-0.1c-0.1,0-0.2,0-0.4,0c-0.5,0-1.1-0.1-1.6-0.1c-0.6,0-1.1-0.1-1.7-0.1c-0.4,0-0.9-0.1-1.3-0.1s-0.9-0.1-1.3-0.2
		c-0.6-0.1-1.1-0.1-1.7-0.2c-0.4-0.1-0.9-0.1-1.3-0.2c-0.2,0-0.4-0.1-0.7-0.1c-0.4-0.1-0.8-0.1-1.2-0.2c-0.6-0.1-1.2-0.2-1.7-0.3
		c-0.7-0.1-1.4-0.3-2.1-0.5c-1.4-0.3-2.8-0.7-4.1-1.1c-0.7-0.2-1.4-0.4-2-0.6c-0.7-0.2-1.3-0.4-2-0.7c-1.3-0.4-2.5-0.9-3.8-1.4
		c-0.2-0.1-0.5-0.2-0.7-0.3c-0.4-0.2-0.9-0.4-1.3-0.6c0,0-0.1,0-0.1-0.1c-0.5-0.2-1.1-0.5-1.6-0.7c-0.1-0.1-0.3-0.1-0.4-0.2
		c-0.6-0.3-1.1-0.5-1.7-0.8c-0.6-0.3-1.2-0.6-1.9-0.9c-0.6-0.3-1.2-0.6-1.8-1c-0.6-0.3-1.2-0.7-1.8-1c-0.6-0.3-1.2-0.7-1.8-1.1
		c-0.6-0.3-1.2-0.7-1.7-1.1c0,0,0,0,0,0c-0.6-0.4-1.2-0.8-1.7-1.1c-1-0.7-2.1-1.4-3.1-2.2c-0.5-0.3-0.9-0.7-1.4-1
		c-0.4-0.3-0.9-0.7-1.3-1c-0.6-0.5-1.2-1-1.8-1.5c-0.3-0.3-0.7-0.6-1-0.9c-0.1-0.1-0.2-0.2-0.2-0.2c-0.1-0.1-0.2-0.2-0.4-0.3
		c-0.3-0.3-0.6-0.5-0.9-0.8c-0.7-0.7-1.5-1.3-2.2-2.1c-0.4-0.3-0.7-0.7-1.1-1.1c-0.4-0.4-0.7-0.7-1-1.1c-0.4-0.4-0.7-0.8-1.1-1.2
		c-0.6-0.7-1.2-1.4-1.8-2.1c-0.3-0.3-0.6-0.7-0.9-1.1c-1.8-2.1-3.4-4.3-4.9-6.6c-0.4-0.6-0.8-1.1-1.1-1.7c0,0,0,0,0-0.1
		c-0.3-0.5-0.6-1-1-1.5c-0.1-0.1-0.2-0.3-0.2-0.4c-0.2-0.3-0.4-0.7-0.6-1c-0.2-0.3-0.4-0.7-0.6-1.1c-0.2-0.3-0.3-0.6-0.5-0.9
		c-0.7-1.2-1.3-2.4-1.9-3.6c-0.3-0.6-0.6-1.2-0.9-1.8c-0.3-0.7-0.6-1.4-0.9-2.1c-0.5-1.3-1.1-2.6-1.5-3.9c-0.3-0.8-0.6-1.7-0.9-2.5
		c-0.5-1.4-0.9-2.8-1.3-4.3c-0.2-0.6-0.3-1.2-0.5-1.8c-0.1-0.4-0.2-0.8-0.3-1.2c-0.1-0.5-0.2-1-0.3-1.5c-0.1-0.5-0.2-1.1-0.3-1.6
		c-0.1-0.5-0.2-1-0.3-1.4c0-0.3-0.1-0.5-0.1-0.8c-0.1-0.4-0.1-0.8-0.2-1.2c-0.1-0.5-0.2-1-0.2-1.6c0-0.1,0-0.2,0-0.3
		c-0.1-0.7-0.2-1.4-0.3-2.1c0-0.1,0-0.1,0-0.2c-0.1-0.6-0.1-1.2-0.2-1.8c0-0.3,0-0.5-0.1-0.8c-0.1-0.7-0.1-1.5-0.1-2.2
		c0-0.4,0-0.8,0-1.2c0-0.4,0-0.9,0-1.3c0-0.7,0-1.5,0-2.2c0-47.5,38.4-86,85.8-86c0.7,0,1.5,0,2.2,0c0.7,0,1.3,0,2,0.1
		c0.6,0,1.1,0.1,1.7,0.1c0,0,0.1,0,0.1,0c0.4,0,0.8,0.1,1.2,0.1c0.4,0,0.8,0.1,1.1,0.1c0.4,0.1,0.9,0.1,1.3,0.2
		c0.5,0,1.1,0.1,1.6,0.2c0.5,0.1,1,0.1,1.6,0.2c0.1,0,0.3,0,0.4,0.1c0.4,0.1,0.9,0.1,1.3,0.2c0.4,0.1,0.7,0.1,1.1,0.2
		c0.5,0.1,1.1,0.2,1.6,0.3c0.4,0.1,0.9,0.2,1.3,0.3c0.4,0.1,0.9,0.2,1.3,0.3c1.1,0.3,2.2,0.5,3.3,0.9c0.6,0.2,1.3,0.4,1.9,0.6
		c0.4,0.1,0.8,0.2,1.2,0.4c0.4,0.1,0.8,0.3,1.2,0.4c0.7,0.2,1.3,0.5,2,0.7c0.5,0.2,1,0.4,1.4,0.5c0.3,0.1,0.6,0.2,0.9,0.3
		c0.4,0.2,0.9,0.4,1.3,0.5c0.8,0.3,1.6,0.7,2.3,1c0.4,0.2,0.8,0.4,1.3,0.6c2,0.9,3.9,1.9,5.7,3l0.9,0.5c0.4,0.2,0.8,0.4,1.1,0.7
		c0,0,0,0,0,0c0.6,0.3,1.1,0.7,1.7,1c1,0.6,2,1.3,2.9,2c0.4,0.3,0.7,0.5,1.1,0.8c0,0,0.1,0.1,0.1,0.1c0.5,0.4,0.9,0.7,1.4,1.1
		c0.5,0.4,1,0.8,1.5,1.1c1,0.8,1.9,1.6,2.9,2.4c1.1,0.9,2.1,1.9,3.1,2.8c0.4,0.4,0.8,0.8,1.2,1.1c0.6,0.6,1.2,1.2,1.8,1.8
		c0.4,0.4,0.8,0.8,1.1,1.2c0.1,0.1,0.2,0.3,0.4,0.4c0.3,0.3,0.6,0.7,0.9,1c0.2,0.2,0.4,0.5,0.6,0.7c0.3,0.3,0.6,0.7,0.9,1.1
		c0.4,0.5,0.8,0.9,1.1,1.4c0.3,0.4,0.7,0.8,1,1.3c0.1,0.1,0.2,0.2,0.3,0.4c0.4,0.6,0.9,1.2,1.3,1.7c0.4,0.5,0.7,1,1.1,1.6
		c1,1.5,1.9,2.9,2.8,4.4c0.3,0.5,0.6,1.1,1,1.6c0.3,0.5,0.6,1,0.9,1.6c0.2,0.4,0.5,0.8,0.7,1.3c0.3,0.5,0.5,1,0.8,1.5
		c0.2,0.5,0.5,1,0.7,1.5c0.1,0.1,0.1,0.3,0.2,0.4c0.3,0.6,0.5,1.2,0.8,1.8c0,0.1,0.1,0.2,0.1,0.3c0.2,0.5,0.4,1,0.6,1.5
		c0.1,0.2,0.2,0.4,0.2,0.6c0.2,0.6,0.4,1.2,0.7,1.7c0.2,0.4,0.3,0.9,0.5,1.3c0.2,0.5,0.3,0.9,0.5,1.4c0.8,2.3,1.5,4.7,2.1,7.1
		c0.1,0.5,0.2,1,0.3,1.5c0.1,0.6,0.2,1.1,0.4,1.7c0.1,0.6,0.2,1.2,0.3,1.8c0,0.2,0.1,0.4,0.1,0.7c0.1,0.4,0.1,0.8,0.2,1.2
		c0.1,0.5,0.2,1,0.2,1.5c0,0.1,0,0.3,0,0.4c0.1,0.6,0.2,1.2,0.2,1.7c0,0.2,0,0.5,0.1,0.7c0.1,0.6,0.1,1.1,0.2,1.7
		c0,0.2,0,0.5,0.1,0.7c0,0.4,0.1,0.8,0.1,1.2c0,0.4,0,0.8,0.1,1.2c0,0.2,0,0.5,0,0.7c0,0.5,0,1.1,0.1,1.6c0,0.7,0,1.5,0,2.2
		C759.4,368.5,720.9,407,673.6,407z M716.7,270.8c-5.5-3.6-11.7-6.6-18.2-8.7c-3.6-1.2-7.4-2.1-11.2-2.8
		c-23.3,6.4-31.7,15.1-34.4,23c-1.8,5.4-0.5,9.3-4.3,15.3c-8.7,13.8-26.6,10.6-37.2,19.1c-0.6,0.5-1,1.1-1,1.8
		c-1.3,11.9-0.7,21.5,2.5,30.7c1.2,1.8,2.5,3.6,3.9,5.3c0.9,1,1.8,2.1,2.7,3.1c3.7,3.8,7.9,7.3,12.5,10.4
		c11.6,7.7,26.1,13,41.5,16.1c34.9,7,63.9-28.6,68.8-63C745.3,300.4,734.1,282.2,716.7,270.8z M716.7,270.8
		c-5.5-3.6-11.7-6.6-18.2-8.7c-3.6-1.2-7.4-2.1-11.2-2.8c-23.3,6.4-31.7,15.1-34.4,23c-1.8,5.4-0.5,9.3-4.3,15.3
		c-8.7,13.8-26.6,10.6-37.2,19.1c-0.6,0.5-1,1.1-1,1.8c-1.3,11.9-0.7,21.5,2.5,30.7c1.2,1.8,2.5,3.6,3.9,5.3c0.9,1,1.8,2.1,2.7,3.1
		c3.7,3.8,7.9,7.3,12.5,10.4c11.6,7.7,26.1,13,41.5,16.1c34.9,7,63.9-28.6,68.8-63C745.3,300.4,734.1,282.2,716.7,270.8z
		 M716.7,270.8c-5.5-3.6-11.7-6.6-18.2-8.7c-3.6-1.2-7.4-2.1-11.2-2.8c-23.3,6.4-31.7,15.1-34.4,23c-1.8,5.4-0.5,9.3-4.3,15.3
		c-8.7,13.8-26.6,10.6-37.2,19.1c-0.6,0.5-1,1.1-1,1.8c-1.3,11.9-0.7,21.5,2.5,30.7c1.2,1.8,2.5,3.6,3.9,5.3c0.9,1,1.8,2.1,2.7,3.1
		c3.7,3.8,7.9,7.3,12.5,10.4c11.6,7.7,26.1,13,41.5,16.1c34.9,7,63.9-28.6,68.8-63C745.3,300.4,734.1,282.2,716.7,270.8z
		 M716.7,270.8c-5.5-3.6-11.7-6.6-18.2-8.7c-3.6-1.2-7.4-2.1-11.2-2.8c-23.3,6.4-31.7,15.1-34.4,23c-1.8,5.4-0.5,9.3-4.3,15.3
		c-8.7,13.8-26.6,10.6-37.2,19.1c-0.6,0.5-1,1.1-1,1.8c-1.3,11.9-0.7,21.5,2.5,30.7c1.2,1.8,2.5,3.6,3.9,5.3c0.9,1,1.8,2.1,2.7,3.1
		c3.7,3.8,7.9,7.3,12.5,10.4c11.6,7.7,26.1,13,41.5,16.1c34.9,7,63.9-28.6,68.8-63C745.3,300.4,734.1,282.2,716.7,270.8z
		 M716.7,270.8c-5.5-3.6-11.7-6.6-18.2-8.7c-3.6-1.2-7.4-2.1-11.2-2.8c-23.3,6.4-31.7,15.1-34.4,23c-1.8,5.4-0.5,9.3-4.3,15.3
		c-8.7,13.8-26.6,10.6-37.2,19.1c-0.6,0.5-1,1.1-1,1.8c-1.3,11.9-0.7,21.5,2.5,30.7c1.2,1.8,2.5,3.6,3.9,5.3c0.9,1,1.8,2.1,2.7,3.1
		c3.7,3.8,7.9,7.3,12.5,10.4c11.6,7.7,26.1,13,41.5,16.1c34.9,7,63.9-28.6,68.8-63C745.3,300.4,734.1,282.2,716.7,270.8z
		 M716.7,270.8c-5.5-3.6-11.7-6.6-18.2-8.7c-3.6-1.2-7.4-2.1-11.2-2.8c-23.3,6.4-31.7,15.1-34.4,23c-1.8,5.4-0.5,9.3-4.3,15.3
		c-8.7,13.8-26.6,10.6-37.2,19.1c-0.6,0.5-1,1.1-1,1.8c-1.3,11.9-0.7,21.5,2.5,30.7c1.2,1.8,2.5,3.6,3.9,5.3c0.9,1,1.8,2.1,2.7,3.1
		c3.7,3.8,7.9,7.3,12.5,10.4c11.6,7.7,26.1,13,41.5,16.1c34.9,7,63.9-28.6,68.8-63C745.3,300.4,734.1,282.2,716.7,270.8z
		 M716.7,270.8c-5.5-3.6-11.7-6.6-18.2-8.7c-3.6-1.2-7.4-2.1-11.2-2.8c-23.3,6.4-31.7,15.1-34.4,23c-1.8,5.4-0.5,9.3-4.3,15.3
		c-8.7,13.8-26.6,10.6-37.2,19.1c-0.6,0.5-1,1.1-1,1.8c-1.3,11.9-0.7,21.5,2.5,30.7c1.2,1.8,2.5,3.6,3.9,5.3c0.9,1,1.8,2.1,2.7,3.1
		c3.7,3.8,7.9,7.3,12.5,10.4c11.6,7.7,26.1,13,41.5,16.1c34.9,7,63.9-28.6,68.8-63C745.3,300.4,734.1,282.2,716.7,270.8z
		 M716.7,270.8c-5.5-3.6-11.7-6.6-18.2-8.7c-3.6-1.2-7.4-2.1-11.2-2.8c-23.3,6.4-31.7,15.1-34.4,23c-1.8,5.4-0.5,9.3-4.3,15.3
		c-8.7,13.8-26.6,10.6-37.2,19.1c-0.6,0.5-1,1.1-1,1.8c-1.3,11.9-0.7,21.5,2.5,30.7c1.2,1.8,2.5,3.6,3.9,5.3c0.9,1,1.8,2.1,2.7,3.1
		c3.7,3.8,7.9,7.3,12.5,10.4c11.6,7.7,26.1,13,41.5,16.1c34.9,7,63.9-28.6,68.8-63C745.3,300.4,734.1,282.2,716.7,270.8z
		 M716.7,270.8c-5.5-3.6-11.7-6.6-18.2-8.7c-3.6-1.2-7.4-2.1-11.2-2.8c-23.3,6.4-31.7,15.1-34.4,23c-1.8,5.4-0.5,9.3-4.3,15.3
		c-8.7,13.8-26.6,10.6-37.2,19.1c-0.6,0.5-1,1.1-1,1.8c-1.3,11.9-0.7,21.5,2.5,30.7c1.2,1.8,2.5,3.6,3.9,5.3c0.9,1,1.8,2.1,2.7,3.1
		c3.7,3.8,7.9,7.3,12.5,10.4c11.6,7.7,26.1,13,41.5,16.1c34.9,7,63.9-28.6,68.8-63C745.3,300.4,734.1,282.2,716.7,270.8z"/>
	<path class="st3" d="M816.4,296.7c-0.2-1-0.4-2-0.7-2.9c-0.7-2.8,0-5.7,2-7.9l13.4-15.1c3.6-4,2.7-10.2-1.7-13.2l-63.9-42.8
		l-0.8,1.1l-23,29.2l0,0l-9.9,12.6l-12.3,15.6L639.2,375l-14.5,18.4l-9.9,12.6l-0.5,0.7l87.8,56.2L943,608.3
		c0.1,0.2-109.4-66.4-45.8-27.6c0.2,0.1,0.4,0,0.4-0.2l-1-211.6c-6.1-1,4,27.9,3.1,2.1c0-0.1,0-0.1-0.1-0.2l-80.1-69.4
		C817.9,300.3,816.8,298.6,816.4,296.7z M815.1,258.2c3.5,2.9,1.2,6.1-1.7,9.6l-4.4,5.3l-3.1,3.7c-2.9,3.5-4.2,6.4-7.7,3.5
		L777,257.8c-0.3-0.3-0.5-0.6-0.7-0.9c-3.3-4.5-7.1-5.9-4.3-9.3l8.6-9.5c2.8-3.4,3.6-2.4,6.9,0.4c0.2,0.1,0.4,0.3,0.5,0.4l1.3,0.9
		L815.1,258.2z"/>
	<path class="st4" d="M670.6,235c-47.4,0-85.8,38.5-85.8,86s38.4,86,85.8,86s85.8-38.5,85.8-86S717.9,235,670.6,235z M670.6,384
		c-21.6-4.3-41.3-13.1-54-26.5c-0.9-1-1.9-2-2.7-3.1c-1.4-1.7-2.7-3.5-3.9-5.3c-3.2-9.2-3.8-18.8-2.5-30.7c0.1-0.7,0.5-1.3,1-1.8
		c10.6-8.5,28.4-5.3,37.2-19.1c3.8-6,2.5-9.9,4.3-15.3c2.6-7.9,11-16.7,34.4-23c3.8,0.7,7.6,1.6,11.2,2.8c27.1,9,47.7,31.9,43.9,59
		C734.5,355.4,705.5,391,670.6,384z"/>
	<path class="st5" d="M692.7,257.3h-0.1c-0.3,0-0.6,0-0.9,0.1c-2.6,0.6-5.1,1.2-7.4,1.8c3.8,0.7,7.6,1.6,11.2,2.8
		C696.7,260.2,695.4,257.4,692.7,257.3z M609.9,349.1c0.8,2.2,1.7,4.4,2.7,6.5c0.7,1.5,2.4,2.2,3.9,1.8c-0.9-1-1.9-2-2.7-3.1
		C612.4,352.7,611.1,351,609.9,349.1z"/>
	<path class="st1" d="M738.4,245c-0.4-0.4-0.8-0.8-1.3-1.1v0c-4.1-3.6-8.5-6.8-13.1-9.7c-15.5-9.6-33.9-15.2-53.5-15.2
		c-56.2,0-101.8,45.7-101.8,102c0,30.5,13.3,57.8,34.5,76.5c17.9,15.9,41.5,25.5,67.3,25.5c56.2,0,101.8-45.7,101.8-102
		C772.3,290.8,759.2,263.7,738.4,245z M670.6,407c-0.7,0-1.5,0-2.2,0c-0.7,0-1.4,0-2.1-0.1c-0.1,0-0.2,0-0.4,0
		c-0.5,0-1.1-0.1-1.6-0.1c-0.6,0-1.1-0.1-1.7-0.1c-0.4,0-0.9-0.1-1.3-0.1c-0.4,0-0.9-0.1-1.3-0.2c-0.6-0.1-1.1-0.1-1.7-0.2
		c-0.4-0.1-0.9-0.1-1.3-0.2c-0.2,0-0.4-0.1-0.7-0.1c-0.4-0.1-0.8-0.1-1.2-0.2c-0.6-0.1-1.2-0.2-1.7-0.3c-0.7-0.1-1.4-0.3-2.1-0.5
		c-1.4-0.3-2.8-0.7-4.1-1.1c-0.7-0.2-1.4-0.4-2-0.6c-0.7-0.2-1.3-0.4-2-0.7c-1.3-0.4-2.5-0.9-3.8-1.4c-0.2-0.1-0.5-0.2-0.7-0.3
		c-0.4-0.2-0.9-0.4-1.3-0.6c0,0-0.1,0-0.1-0.1c-0.5-0.2-1.1-0.5-1.6-0.7c-0.1-0.1-0.3-0.1-0.4-0.2c-0.6-0.3-1.1-0.5-1.7-0.8
		c-0.6-0.3-1.2-0.6-1.9-0.9c-0.6-0.3-1.2-0.6-1.8-1c-0.6-0.3-1.2-0.7-1.8-1c-0.6-0.3-1.2-0.7-1.8-1.1c-0.6-0.3-1.2-0.7-1.7-1.1
		c0,0,0,0,0,0c-0.6-0.4-1.2-0.8-1.7-1.1c-1-0.7-2.1-1.4-3.1-2.2c-0.5-0.3-0.9-0.7-1.4-1c-0.4-0.3-0.9-0.7-1.3-1
		c-0.6-0.5-1.2-1-1.8-1.5c-0.3-0.3-0.7-0.6-1-0.9c-0.1-0.1-0.2-0.2-0.2-0.2c-0.1-0.1-0.2-0.2-0.4-0.3c-0.3-0.3-0.6-0.5-0.9-0.8
		c-0.7-0.7-1.5-1.3-2.2-2.1c-0.4-0.3-0.7-0.7-1.1-1.1c-0.4-0.4-0.7-0.7-1-1.1c-0.4-0.4-0.7-0.8-1.1-1.2c-0.6-0.7-1.2-1.4-1.8-2.1
		c-0.3-0.3-0.6-0.7-0.9-1.1c-1.8-2.1-3.4-4.3-4.9-6.6c-0.4-0.5-0.7-1.1-1.1-1.7c0,0,0,0,0-0.1c-0.3-0.5-0.6-1-1-1.5
		c-0.1-0.1-0.2-0.3-0.2-0.4c-0.2-0.3-0.4-0.7-0.6-1c-0.2-0.3-0.4-0.7-0.6-1.1c-0.2-0.3-0.3-0.6-0.5-0.9c-0.7-1.2-1.3-2.4-1.9-3.6
		c-0.3-0.6-0.6-1.2-0.9-1.8c-0.3-0.7-0.6-1.4-0.9-2.1c-0.5-1.3-1.1-2.6-1.5-3.9c-0.3-0.8-0.6-1.7-0.9-2.5c-0.5-1.4-0.9-2.8-1.3-4.3
		c-0.2-0.6-0.3-1.2-0.5-1.8c-0.1-0.4-0.2-0.8-0.3-1.2c-0.1-0.5-0.2-1-0.3-1.5c-0.1-0.5-0.2-1.1-0.3-1.6c-0.1-0.5-0.2-1-0.3-1.4
		c0-0.3-0.1-0.5-0.1-0.8c-0.1-0.4-0.1-0.8-0.2-1.2c-0.1-0.5-0.2-1-0.2-1.6c0-0.1,0-0.2,0-0.3c-0.1-0.7-0.2-1.4-0.3-2.1
		c0-0.1,0-0.1,0-0.2c-0.1-0.6-0.1-1.2-0.2-1.8c0-0.3,0-0.5-0.1-0.8c-0.1-0.7-0.1-1.5-0.1-2.2c0-0.4,0-0.8,0-1.2c0-0.4,0-0.9,0-1.3
		c0-0.7,0-1.5,0-2.2c0-47.5,38.4-86,85.8-86c0.7,0,1.5,0,2.2,0c0.7,0,1.3,0,2,0.1c0.6,0,1.1,0.1,1.7,0.1c0,0,0.1,0,0.1,0
		c0.4,0,0.8,0.1,1.2,0.1c0.4,0,0.8,0.1,1.1,0.1c0.4,0.1,0.9,0.1,1.3,0.2c0.5,0,1.1,0.1,1.6,0.2c0.5,0.1,1,0.1,1.6,0.2
		c0.1,0,0.3,0,0.4,0.1c0.4,0.1,0.9,0.1,1.3,0.2c0.4,0.1,0.7,0.1,1.1,0.2c0.5,0.1,1.1,0.2,1.6,0.3c0.4,0.1,0.9,0.2,1.3,0.3
		c0.4,0.1,0.9,0.2,1.3,0.3c1.1,0.3,2.2,0.5,3.3,0.9c0.6,0.2,1.3,0.4,1.9,0.6c0.4,0.1,0.8,0.2,1.2,0.4c0.4,0.1,0.8,0.3,1.2,0.4
		c0.7,0.2,1.3,0.5,2,0.7c0.5,0.2,1,0.4,1.4,0.5c0.3,0.1,0.6,0.2,0.9,0.3c0.4,0.2,0.9,0.4,1.3,0.5c0.8,0.3,1.6,0.7,2.3,1
		c0.4,0.2,0.8,0.4,1.3,0.6c2,0.9,3.9,1.9,5.7,3l0.9,0.5c0.4,0.2,0.8,0.4,1.1,0.7c0,0,0,0,0,0c0.6,0.3,1.1,0.7,1.7,1
		c1,0.6,2,1.3,2.9,2c0.4,0.3,0.7,0.5,1.1,0.8c0,0,0.1,0.1,0.1,0.1c0.5,0.4,0.9,0.7,1.4,1.1c0.5,0.4,1,0.8,1.5,1.1
		c1,0.8,1.9,1.6,2.9,2.4c1.1,0.9,2.1,1.9,3.1,2.8c0.4,0.4,0.8,0.8,1.2,1.1c0.6,0.6,1.2,1.2,1.8,1.8c0.4,0.4,0.8,0.8,1.1,1.2
		c0.1,0.1,0.2,0.3,0.4,0.4c0.3,0.3,0.6,0.7,0.9,1c0.2,0.2,0.4,0.5,0.6,0.7c0.3,0.3,0.6,0.7,0.9,1.1c0.4,0.5,0.8,0.9,1.1,1.4
		c0.3,0.4,0.7,0.8,1,1.3c0.1,0.1,0.2,0.2,0.3,0.4c0.4,0.6,0.9,1.2,1.3,1.7c0.4,0.5,0.7,1,1.1,1.6c1,1.5,1.9,2.9,2.8,4.4
		c0.3,0.5,0.6,1.1,1,1.6c0.3,0.5,0.6,1,0.9,1.6c0.2,0.4,0.5,0.8,0.7,1.3c0.3,0.5,0.5,1,0.8,1.5c0.2,0.5,0.5,1,0.7,1.5
		c0.1,0.1,0.1,0.3,0.2,0.4c0.3,0.6,0.5,1.2,0.8,1.8c0,0.1,0.1,0.2,0.1,0.3c0.2,0.5,0.4,1,0.6,1.5c0.1,0.2,0.2,0.4,0.2,0.6
		c0.2,0.6,0.4,1.2,0.7,1.7c0.2,0.4,0.3,0.9,0.5,1.3c0.2,0.5,0.3,0.9,0.5,1.4c0.8,2.3,1.5,4.7,2.1,7.1c0.1,0.5,0.2,1,0.3,1.5
		c0.1,0.6,0.2,1.1,0.4,1.7c0.1,0.6,0.2,1.2,0.3,1.8c0,0.2,0.1,0.4,0.1,0.7c0.1,0.4,0.1,0.8,0.2,1.2c0.1,0.5,0.2,1,0.2,1.5
		c0,0.1,0,0.3,0,0.4c0.1,0.6,0.2,1.2,0.2,1.7c0,0.2,0,0.5,0.1,0.7c0.1,0.6,0.1,1.1,0.2,1.7c0,0.2,0,0.5,0.1,0.7
		c0,0.4,0.1,0.8,0.1,1.2c0,0.4,0,0.8,0.1,1.2c0,0.2,0,0.5,0,0.7c0,0.5,0,1.1,0.1,1.6c0,0.7,0,1.5,0,2.2
		C756.4,368.5,717.9,407,670.6,407z"/>
	<ellipse class="st1" cx="670.6" cy="321" rx="85.8" ry="86"/>
	<path class="st6" d="M672.2,235c-48.7-0.9-88.3,38.8-87.4,87.6c0.8,46,38.3,83.5,84.2,84.4c48.7,0.9,88.3-38.8,87.4-87.6
		C755.5,273.4,718.1,235.9,672.2,235z M670.6,384c-21.6-4.3-41.3-13.1-54-26.5c-1.5,0.4-3.2-0.3-3.9-1.8c-1.1-2.2-2-4.4-2.7-6.5
		c-3.2-9.2-2.5-20.3-1.2-32.1c0.1-0.7-0.6,0.5,0,0c10.6-8.5,28.2-5.6,36.9-19.5c3.8-6,2.5-9.9,4.3-15.3c2.6-7.9,11-16.7,34.4-23
		c2.3-0.6,2.6,7.4,5.2,6.8c0.3-0.1,3.7,0,4,0l-1-4c2.7,0.1,4.2-1.8,3,0c27.1,9,47.7,31.9,43.9,59C734.5,355.4,705.5,391,670.6,384z"
		/>
	<g>
		<g>
			<path class="st6" d="M616.2,336.8c-1.7-6.7-3.4-13.4-5.1-20.2c-0.4-1.8-2.8-1.2-2.9,0.4c-0.5,4.6-1.1,9.2-1.6,13.8
				c-0.2,1.8,2.4,1.8,2.9,0.4c2.6-6.7,5.2-13.5,7.8-20.2c-1-0.3-1.9-0.5-2.9-0.8c-1.6,8.4-3.2,16.8-4.9,25.2c1,0.1,2,0.3,2.9,0.4
				c1.2-10.1,2.4-20.3,3.5-30.4c-1,0-2,0-3,0c-1,10.2-1.9,20.5-2.9,30.7c1,0,2,0,3,0c0.8-12.6,1.7-25.2,2.5-37.8c-1,0-2,0-3,0
				c-0.9,14.5-1.8,29-2.7,43.5c-0.1,1.9,2.9,1.9,3,0c0.5-7.5,1-14.9,1.5-22.4c-1,0-2,0-3,0c0.5,8.8,1,17.6,1.5,26.4
				c0.1,1.7,2.4,2,2.9,0.4c7.3-19.7,14.6-39.5,21.9-59.2c0.6-1.6-2-2.7-2.7-1.2c-7.2,13.8-14.4,27.5-21.5,41.3
				c-0.9,1.7,1.6,3.2,2.6,1.5c12.1-20.5,30.6-36.5,52.7-45.4c-0.4-0.9-0.8-1.8-1.2-2.7c-5.6,3.4-11.2,6.7-16.9,10.1
				c-1.1,0.7-2.2,1.4-3.4,1.9c-1.4,0.9-2.8,1.2-4.4,0.7c-1.8,0.4-2.7-0.3-2.6-2.2c-0.8-2.8,0.4-3.5,2.7-4.9c1.7-1,3.7-1.7,5.5-2.4
				c12.2-4.8,24.9-8.6,37.7-11.5c1.6-0.4,1.2-2.4,0-2.9c-6.8-2.8-13.6-5.6-20.4-8.4c-0.1,1-0.3,2-0.4,2.9c10.5-0.8,21-1.6,31.5-2.4
				c1.9-0.1,1.9-2.8,0-3c-8.4-0.7-16.8-1.3-25.2-2c-1.4-0.1-2.1,2.2-0.8,2.8c11.8,5.1,23.6,10.2,35.5,15.2c1.7,0.7,3.2-1.5,1.5-2.6
				c-7.5-5-14.9-10-22.4-15c-0.4,0.9-0.8,1.8-1.2,2.7c11.1,4.2,22.2,8.4,33.3,12.6c1.6,0.6,2.7-2,1.2-2.7
				c-8.2-3.8-16.4-7.6-24.6-11.4c-1.4-0.7-3.2,1.2-1.8,2.4c11.1,8.9,22.2,17.8,33.2,26.8c0.5-0.8,1-1.7,1.5-2.5
				c-10.4-3.6-19.4-10.1-26.2-18.8c-0.8,0.6-1.6,1.2-2.4,1.8c9.7,8.7,19.4,17.4,29,26.1c1.4,1.3,3.4-0.7,2.1-2.1
				c-6.4-7.4-12.7-14.8-19.1-22.2c-0.6,0.8-1.2,1.6-1.8,2.4c8.9,6.2,17.9,12.5,26.8,18.7c1.4,1,3.1-1.2,1.8-2.4
				c-7.1-6.3-14.2-12.7-21.3-19c-0.6,0.8-1.2,1.6-1.8,2.4c10.1,6.6,17.9,15.6,23,26.5c0.8-0.6,1.6-1.2,2.4-1.8
				c-4.4-5-8.9-10-13.3-15c-0.6,0.8-1.2,1.6-1.8,2.4c6,4.6,12,9.1,17.9,13.7c1.4,1.1,2.8-1.1,1.8-2.4c-17.3-20.2-45.6-22.4-67.1-36
				c-0.5,0.9-1,1.7-1.5,2.6c8.7,4.7,17.4,9.4,26,14.2c1.4,0.8,3.2-1.3,1.8-2.4c-10-7.8-21.6-12.5-34.2-14c-1.7-0.2-2.1,2.7-0.4,2.9
				c9.7,1.4,19.1,0,28-4.2c1.6-0.8,0.4-3-1.2-2.7c-14.2,2.4-27.6,7.7-39.5,15.7c-1.3,0.9-0.5,3.4,1.2,2.7
				c7.1-2.6,12.8-7.1,16.9-13.4c0.8-1.2-0.8-2.9-2.1-2.1c-27.4,18.4-47,46.8-54.4,78.9c1,0,1.9,0,2.9,0c-3.8-10.6-3.3-21.9,1.5-32.2
				c-0.9-0.4-1.8-0.8-2.7-1.2c-4.3,13.5-8.7,26.9-13,40.4c1,0.3,1.9,0.5,2.9,0.8c4.7-15.1,9.5-30.3,14.2-45.4
				c0.5-1.7-1.9-2.6-2.7-1.2c-8.5,13.8-13.7,29.2-15.2,45.3c-0.2,1.7,2.5,2,2.9,0.4c4-13.6,8.1-27.3,12.1-40.9
				c0.5-1.6-1.9-2.7-2.7-1.2c-7,12.9-11,26.9-12,41.6c-0.1,1.8,2.4,1.9,2.9,0.4c4.2-12.8,8.4-25.7,12.6-38.5c-1-0.3-1.9-0.5-2.9-0.8
				c-3.9,15.9-7.8,31.8-11.7,47.8c1,0.3,1.9,0.5,2.9,0.8c3.6-14.9,7.1-29.8,10.7-44.6c-1-0.3-1.9-0.5-2.9-0.8
				c-3.1,14.5-6.3,29-9.4,43.5c-0.4,1.9,2.3,2.7,2.9,0.8c3.5-11.4,6.9-22.8,10.4-34.2c-1-0.3-1.9-0.5-2.9-0.8
				c-1.7,10.9-3.5,21.9-5.2,32.8c1,0.3,1.9,0.5,2.9,0.8c1.4-9.6,2.8-19.3,4.3-28.9c-1-0.1-2-0.3-2.9-0.4c-1,11.7-2.1,23.3-3.1,35
				c1,0,2,0,3,0c-0.6-7.1-1.2-14.2-1.7-21.4c-0.1-1.3-2.1-2.3-2.8-0.8c-3.4,7.7-3.9,15.8-1.3,23.7c0.4,1.3,2.6,1.6,2.9,0
				c1.2-7.8,2.4-15.6,3.7-23.5c0.3-1.9-2.6-2.7-2.9-0.8c-1,6.6-2.1,13.3-3.1,19.9c-0.3,1.9,2.4,2.7,2.9,0.8
				c3.1-13.3,6.2-26.6,9.3-39.9c0.4-1.9-2.4-2.7-2.9-0.8c-3.2,11.5-6.4,23-9.6,34.5c1,0.1,2,0.3,2.9,0.4
				c2.5-20.4,9.2-39.9,19.8-57.6c-0.9-0.5-1.7-1-2.6-1.5c-5.8,11.6-11.6,23.2-17.4,34.8c0.9,0.4,1.8,0.8,2.7,1.2
				c6.3-17.1,16.3-32.3,29.5-44.8c-0.8-0.6-1.6-1.2-2.4-1.8c-5.5,12.4-13.1,23.4-22.9,32.8c0.8,0.6,1.6,1.2,2.4,1.8
				c15.3-25.8,38.9-46.1,66.7-57.4c-0.4-0.9-0.8-1.8-1.2-2.7c-9.7,4.3-19.3,8.5-29,12.8c0.5,0.9,1,1.7,1.5,2.6
				c11.9-5.7,25.1-7.6,38.2-5.5c0.1-1,0.3-2,0.4-2.9c-10.8,1.3-21.7,2.6-32.5,3.9c-1.9,0.2-2,3.1,0,3c18.1-0.9,35.9,1.9,52.9,8.2
				c1.6,0.6,2.6-1.9,1.2-2.7c-7.1-4.4-14.2-8.8-21.3-13.1c-1.4-0.9-3.1,1.2-1.8,2.4c12.8,11.4,25.7,22.9,38.5,34.3
				c1.5,1.3,3.3-0.6,2.1-2.1c-3.3-4.1-6.6-8.1-9.9-12.2c-0.9-1.1-3.1,0.1-2.5,1.5c2.4,5.9,4.8,11.8,7.2,17.7c0.8-0.5,1.7-1,2.5-1.5
				c-5.4-6.8-10.9-13.5-16.3-20.3c-0.7,0.7-1.4,1.4-2.1,2.1c7.3,7.9,14.6,15.8,21.9,23.6c0.7-0.7,1.4-1.4,2.1-2.1
				c-6.4-6.6-12.8-13.2-19.3-19.9c-1.3-1.4-3.4,0.7-2.1,2.1c5.9,6.4,11.9,12.8,17.8,19.2c1.2,1.2,3.2-0.4,2.4-1.8
				c-3.1-5-6.1-9.9-9.2-14.9c-0.8,0.6-1.6,1.2-2.4,1.8c4.8,5,9.7,10.1,14.5,15.1c1.4,1.4,3.4-0.7,2.1-2.1c-2.8-3.2-5.5-6.3-8.3-9.5
				c-1.1-1.3-3.3,0.4-2.4,1.8c3.6,5.7,7.1,11.4,10.7,17.1c1,1.6,3.6,0.1,2.6-1.5c-3.6-5.7-7.1-11.4-10.7-17.1
				c-0.8,0.6-1.6,1.2-2.4,1.8c2.8,3.2,5.5,6.3,8.3,9.5c0.7-0.7,1.4-1.4,2.1-2.1c-4.8-5-9.7-10.1-14.5-15.1c-1.2-1.2-3.3,0.4-2.4,1.8
				c3.1,5,6.1,9.9,9.2,14.9c0.8-0.6,1.6-1.2,2.4-1.8c-5.9-6.4-11.9-12.8-17.8-19.2c-0.7,0.7-1.4,1.4-2.1,2.1
				c6.4,6.6,12.8,13.2,19.3,19.9c1.3,1.4,3.4-0.7,2.1-2.1c-7.3-7.9-14.6-15.8-21.9-23.6c-1.3-1.4-3.3,0.7-2.1,2.1
				c5.4,6.8,10.9,13.5,16.3,20.3c0.9,1.1,3.1-0.1,2.5-1.5c-2.4-5.9-4.8-11.8-7.2-17.7c-0.8,0.5-1.7,1-2.5,1.5
				c3.3,4.1,6.6,8.1,9.9,12.2c0.7-0.7,1.4-1.4,2.1-2.1c-12.8-11.4-25.7-22.9-38.5-34.3c-0.6,0.8-1.2,1.6-1.8,2.4
				c7.1,4.4,14.2,8.8,21.3,13.1c0.4-0.9,0.8-1.8,1.2-2.7c-17.2-6.4-35.3-9.3-53.7-8.4c0,1,0,2,0,3c10.8-1.3,21.7-2.6,32.5-3.9
				c1.5-0.2,2.2-2.7,0.4-2.9c-13.9-2.2-27.7-0.3-40.5,5.8c-1.8,0.8-0.2,3.4,1.5,2.6c9.7-4.3,19.3-8.5,29-12.8
				c1.5-0.7,0.4-3.4-1.2-2.7c-28.6,11.6-52.7,32.2-68.5,58.8c-0.9,1.5,1.1,3,2.4,1.8c9.9-9.6,17.8-20.8,23.4-33.4
				c0.7-1.5-1-3.1-2.4-1.8c-13.6,12.9-23.8,28.6-30.3,46.1c-0.6,1.6,2,2.7,2.7,1.2c5.8-11.6,11.6-23.2,17.4-34.8
				c0.9-1.7-1.6-3.2-2.6-1.5c-10.9,18.1-17.7,38.1-20.2,59.1c-0.2,1.7,2.5,2,2.9,0.4c3.2-11.5,6.4-23,9.6-34.5
				c-1-0.3-1.9-0.5-2.9-0.8c-3.1,13.3-6.2,26.6-9.3,39.9c1,0.3,1.9,0.5,2.9,0.8c1-6.6,2.1-13.3,3.1-19.9c-1-0.3-1.9-0.5-2.9-0.8
				c-1.2,7.8-2.4,15.6-3.7,23.5c1,0,1.9,0,2.9,0c-2.3-7.2-2.1-14.5,1-21.4c-0.9-0.3-1.9-0.5-2.8-0.8c0.6,7.1,1.2,14.2,1.7,21.4
				c0.2,1.9,2.8,1.9,3,0c1-11.7,2.1-23.3,3.1-35c0.1-1.7-2.7-2.1-2.9-0.4c-1.4,9.6-2.8,19.3-4.3,28.9c-0.3,1.9,2.6,2.7,2.9,0.8
				c1.7-10.9,3.5-21.9,5.2-32.8c0.3-1.9-2.3-2.7-2.9-0.8c-3.5,11.4-6.9,22.8-10.4,34.2c1,0.3,1.9,0.5,2.9,0.8
				c3.1-14.5,6.3-29,9.4-43.5c0.4-1.9-2.4-2.7-2.9-0.8c-3.6,14.9-7.1,29.8-10.7,44.6c-0.5,1.9,2.4,2.7,2.9,0.8
				c3.9-15.9,7.8-31.8,11.7-47.8c0.5-1.9-2.3-2.6-2.9-0.8c-4.2,12.8-8.4,25.7-12.6,38.5c1,0.1,2,0.3,2.9,0.4
				c0.9-14.1,4.8-27.6,11.6-40c-0.9-0.4-1.8-0.8-2.7-1.2c-4,13.6-8.1,27.3-12.1,40.9c1,0.1,2,0.3,2.9,0.4
				c1.5-15.6,6.5-30.5,14.8-43.8c-0.9-0.4-1.8-0.8-2.7-1.2c-4.7,15.1-9.5,30.3-14.2,45.4c-0.6,1.8,2.3,2.6,2.9,0.8
				c4.3-13.5,8.7-26.9,13-40.4c0.5-1.6-2-2.7-2.7-1.2c-5.1,10.9-5.8,23.1-1.8,34.5c0.5,1.3,2.5,1.5,2.9,0
				c7.3-31.4,26.3-59.1,53-77.1c-0.7-0.7-1.4-1.4-2.1-2.1c-3.7,5.7-8.7,9.7-15.1,12.1c0.4,0.9,0.8,1.8,1.2,2.7
				c11.8-7.9,24.9-13.1,38.8-15.4c-0.4-0.9-0.8-1.8-1.2-2.7c-8.1,3.8-16.8,5.2-25.7,3.9c-0.1,1-0.3,2-0.4,2.9
				c11.7,1.4,22.7,5.9,32.1,13.1c0.6-0.8,1.2-1.6,1.8-2.4c-8.7-4.7-17.4-9.4-26-14.2c-1.7-0.9-3.1,1.6-1.5,2.6
				c21.3,13.5,49.5,15.5,66.5,35.5c0.6-0.8,1.2-1.6,1.8-2.4c-6-4.6-12-9.1-17.9-13.7c-1.4-1.1-2.9,1.2-1.8,2.4c4.4,5,8.9,10,13.3,15
				c1.2,1.4,3-0.4,2.4-1.8c-5.3-11.4-13.6-20.8-24.1-27.6c-1.4-0.9-3.1,1.2-1.8,2.4c7.1,6.3,14.2,12.7,21.3,19
				c0.6-0.8,1.2-1.6,1.8-2.4c-8.9-6.2-17.9-12.5-26.8-18.7c-1.5-1-2.9,1.1-1.8,2.4c6.4,7.4,12.7,14.8,19.1,22.2
				c0.7-0.7,1.4-1.4,2.1-2.1c-9.7-8.7-19.4-17.4-29-26.1c-1.2-1.1-3.4,0.4-2.4,1.8c7.2,9.5,16.7,16.3,27.9,20.2
				c1.4,0.5,2.6-1.6,1.5-2.5c-11.1-8.9-22.2-17.8-33.2-26.8c-0.6,0.8-1.2,1.6-1.8,2.4c8.2,3.8,16.4,7.6,24.6,11.4
				c0.4-0.9,0.8-1.8,1.2-2.7c-11.1-4.2-22.2-8.4-33.3-12.6c-1.7-0.6-2.5,1.8-1.2,2.7c7.5,5,14.9,10,22.4,15c0.5-0.9,1-1.7,1.5-2.6
				c-11.8-5.1-23.6-10.2-35.5-15.2c-0.3,0.9-0.5,1.9-0.8,2.8c8.4,0.7,16.8,1.3,25.2,2c0-1,0-2,0-3c-10.5,0.8-21,1.6-31.5,2.4
				c-1.8,0.1-2,2.3-0.4,2.9c6.8,2.8,13.6,5.6,20.4,8.4c0-1,0-1.9,0-2.9c-10.1,2.3-20,5.1-29.8,8.6c-5.4,1.9-17,4.3-19.1,10.8
				c-1.5,4.8,3.1,8.3,7.6,7.9c3.8-0.4,7.2-2.9,10.4-4.8c4.8-2.9,9.6-5.8,14.5-8.6c1.4-0.8,0.5-3.4-1.2-2.7
				c-22.9,9.2-42,25.6-54.5,46.8c0.9,0.5,1.7,1,2.6,1.5c7.2-13.8,14.4-27.5,21.5-41.3c-0.9-0.4-1.8-0.8-2.7-1.2
				c-7.3,19.7-14.6,39.5-21.9,59.2c1,0.1,2,0.3,2.9,0.4c-0.5-8.8-1-17.6-1.5-26.4c-0.1-1.9-2.9-1.9-3,0c-0.5,7.5-1,14.9-1.5,22.4
				c1,0,2,0,3,0c0.9-14.5,1.8-29,2.7-43.5c0.1-1.9-2.9-1.9-3,0c-0.8,12.6-1.7,25.2-2.5,37.8c-0.1,1.9,2.8,1.9,3,0
				c1-10.2,1.9-20.5,2.9-30.7c0.2-1.9-2.8-1.9-3,0c-1.2,10.1-2.4,20.3-3.5,30.4c-0.2,1.7,2.6,2.1,2.9,0.4c1.6-8.4,3.2-16.8,4.9-25.2
				c0.4-1.9-2.2-2.6-2.9-0.8c-2.6,6.7-5.2,13.5-7.8,20.2c1,0.1,2,0.3,2.9,0.4c0.5-4.6,1.1-9.2,1.6-13.8c-1,0.1-2,0.3-2.9,0.4
				c1.7,6.7,3.4,13.4,5.1,20.2C613.8,339.4,616.7,338.7,616.2,336.8L616.2,336.8z"/>
		</g>
	</g>
	<g>
		<g>
			<path class="st6" d="M617.2,321.1c5.9-10.3,14.5-18.3,25.2-23.4c-0.7-0.7-1.4-1.4-2.1-2.1c-8.1,11.2-16.3,22.3-24.4,33.5
				c-1,1.4,1.3,3.1,2.4,1.8c8.4-10.4,16.7-20.8,25.1-31.2c-0.8-0.6-1.6-1.2-2.4-1.8c-6.3,13.3-14.8,25.3-25.2,35.7
				c0.8,0.5,1.7,1,2.5,1.5c4.7-11.9,9.3-23.8,14-35.6c0.5-1.4-1.6-2.6-2.5-1.5c-7.1,8.3-14.2,16.6-21.3,24.8c0.8,0.5,1.7,1,2.5,1.5
				c1.3-5.9,2.7-11.7,4-17.6c0.4-1.9-2.2-2.6-2.9-0.8c-2.4,6.2-4.7,12.4-7.1,18.6c-0.7,1.8,2.2,2.6,2.9,0.8
				c7.7-19.8,22.6-35.9,41.6-45.2c-0.6-0.8-1.2-1.6-1.8-2.4c-9.2,10.3-18.4,20.6-27.6,30.9c-1.3,1.5,0.7,3.4,2.1,2.1
				c13.3-11.2,26.6-22.4,39.9-33.5c-0.7-0.7-1.4-1.4-2.1-2.1c-9.3,8.7-18.6,17.4-27.8,26.1c0.7,0.7,1.4,1.4,2.1,2.1
				c14.2-14.2,30.5-26.1,48.4-35.3c-0.5-0.9-1-1.7-1.5-2.6c-12.8,7.8-25.6,15.5-38.4,23.3c-1.7,1-0.2,3.5,1.5,2.6
				c12-6.3,24.1-12.7,36.1-19c1.5-0.8,0.5-3.2-1.2-2.7c-8.2,2.4-16.5,4.8-24.7,7.1c-1.9,0.5-1.1,3.4,0.8,2.9
				c10.1-2.5,20.2-4.9,30.2-7.4c1.9-0.5,1.1-3.2-0.8-2.9c-10.5,1.7-21,3.4-31.5,5.1c0.3,1,0.5,1.9,0.8,2.9
				c13.7-2.6,27.4-5.2,41.2-7.9c-0.3-1-0.5-1.9-0.8-2.9c-13.7,5.7-28.1,9.3-42.9,10.7c0.1,1,0.3,2,0.4,2.9c15.6-5.1,31.6-7.9,48-8.4
				c0-1,0-2,0-3c-12.8,1-25.5,2-38.3,3c-1.6,0.1-2.1,2.5-0.4,2.9c12,2.8,24.2,2.4,35.9-1.4c1.6-0.5,1.4-3-0.4-2.9
				c-12.7,0.3-25.4,0.6-38.1,1c-1.7,0-2.1,2.5-0.4,2.9c12.8,3.4,26,2.2,38-3.5c1.4-0.7,0.6-2.7-0.8-2.8c-10.5-0.4-21-0.8-31.6-1.2
				c-2-0.1-1.9,2.8,0,3c9.6,1.1,19.2,2.3,28.8,3.4c0-1,0-2,0-3c-8.6-0.5-17.2-1-25.8-1.5c0,1,0,2,0,3c8.3-0.2,16.7-0.4,25-0.6
				c1.9,0,1.9-3,0-3c-12.9,0.3-25.4,3.5-36.8,9.4c-1.5,0.8-0.5,3.3,1.2,2.7c9.9-3.3,19.9-6.7,29.8-10c1.8-0.6,1-3.5-0.8-2.9
				c-9.9,3.3-19.9,6.7-29.8,10c0.4,0.9,0.8,1.8,1.2,2.7c11-5.7,22.9-8.8,35.3-9c0-1,0-2,0-3c-8.3,0.2-16.7,0.4-25,0.6
				c-1.9,0-1.9,2.9,0,3c8.6,0.5,17.2,1,25.8,1.5c2,0.1,1.9-2.8,0-3c-9.6-1.1-19.2-2.3-28.8-3.4c0,1,0,2,0,3
				c10.5,0.4,21,0.8,31.6,1.2c-0.3-0.9-0.5-1.9-0.8-2.8c-11.3,5.3-23.7,6.3-35.7,3.2c-0.1,1-0.3,2-0.4,2.9c12.7-0.3,25.4-0.6,38.1-1
				c-0.1-1-0.3-2-0.4-2.9c-11.2,3.6-22.8,4.1-34.3,1.4c-0.1,1-0.3,2-0.4,2.9c12.8-1,25.5-2,38.3-3c1.9-0.1,2-3.1,0-3
				c-16.6,0.4-33,3.3-48.8,8.5c-1.5,0.5-1.4,3.1,0.4,2.9c15.1-1.4,29.7-5,43.7-10.8c1.8-0.7,1.1-3.3-0.8-2.9
				c-13.7,2.6-27.4,5.2-41.2,7.9c-1.9,0.4-1.1,3.2,0.8,2.9c10.5-1.7,21-3.4,31.5-5.1c-0.3-1-0.5-1.9-0.8-2.9
				c-10.1,2.5-20.2,4.9-30.2,7.4c0.3,1,0.5,1.9,0.8,2.9c8.2-2.4,16.5-4.8,24.7-7.1c-0.4-0.9-0.8-1.8-1.2-2.7
				c-12,6.3-24.1,12.7-36.1,19c0.5,0.9,1,1.7,1.5,2.6c12.8-7.8,25.6-15.5,38.4-23.3c1.7-1,0.2-3.5-1.5-2.6
				c-18.1,9.3-34.6,21.4-49,35.8c-1.4,1.4,0.7,3.4,2.1,2.1c9.3-8.7,18.6-17.4,27.8-26.1c1.4-1.3-0.7-3.3-2.1-2.1
				c-13.3,11.2-26.6,22.4-39.9,33.5c0.7,0.7,1.4,1.4,2.1,2.1c9.2-10.3,18.4-20.6,27.6-30.9c1.2-1.3-0.3-3.1-1.8-2.4
				c-19.7,9.8-35,26.6-43,47c1,0.3,1.9,0.5,2.9,0.8c2.4-6.2,4.7-12.4,7.1-18.6c-1-0.3-1.9-0.5-2.9-0.8c-1.3,5.9-2.7,11.7-4,17.6
				c-0.3,1.4,1.5,2.7,2.5,1.5c7.1-8.3,14.2-16.6,21.3-24.8c-0.8-0.5-1.7-1-2.5-1.5c-4.7,11.9-9.3,23.8-14,35.6
				c-0.6,1.5,1.5,2.4,2.5,1.5c10.6-10.6,19.2-22.8,25.7-36.3c0.7-1.4-1.2-3.2-2.4-1.8c-8.4,10.4-16.7,20.8-25.1,31.2
				c0.8,0.6,1.6,1.2,2.4,1.8c8.1-11.2,16.3-22.3,24.4-33.5c1-1.3-0.8-2.6-2.1-2.1c-11.2,5.3-20.2,13.7-26.3,24.5
				C613.7,321.3,616.3,322.8,617.2,321.1L617.2,321.1z"/>
		</g>
	</g>
	<g>
		<g>
			<path class="st6" d="M734.1,309.9c-0.8,9.2-1.5,18.5-2.3,27.7c1-0.1,2-0.3,2.9-0.4c-1.2-7.2-2.4-14.5-3.6-21.7
				c-0.3-1.7-3-1.3-2.9,0.4c0.2,7.8,0.4,15.5,0.6,23.3c1,0,2,0,3,0c-0.5-10.5-0.9-21.1-1.4-31.6c-1,0-2,0-3,0
				c1.2,8.7,2.3,17.3,3.5,26c0.3,1.9,3.2,1.9,3,0c-1.1-8.9-2.1-17.9-3.2-26.8c-1,0.1-2,0.3-2.9,0.4c1.5,8.3,2.9,16.6,4.4,24.9
				c0.3,1.6,3.1,1.3,2.9-0.4c-1-8.9-2-17.8-3-26.7c-1,0.1-2,0.3-2.9,0.4c2.1,8.7,4.3,17.4,6.4,26.2c0.4,1.6,3.1,1.3,2.9-0.4
				c-1-8.8-2.1-17.6-3.1-26.4c-1,0.1-2,0.3-2.9,0.4c1.9,7.7,3.8,15.4,5.8,23c0.5,1.9,3.4,1.1,2.9-0.8c-2-8.2-4-16.4-6-24.6
				c-1,0.3-1.9,0.5-2.9,0.8c1.9,6.1,3.7,12.2,5.6,18.3c0.5,1.5,3.1,1.4,2.9-0.4c-0.7-6.8-1.3-13.6-2-20.4c-1,0-2,0-3,0
				c0.6,6.3,1.3,12.6,1.9,18.9c1,0,2,0,3,0c-0.7-5.7-1.4-11.3-2.2-17c-1,0.1-2,0.3-2.9,0.4c1.5,7.5,3,15.1,4.6,22.6
				c1-0.3,1.9-0.5,2.9-0.8c-2.1-9.2-4.2-18.3-6.3-27.5c-0.3-1.4-2.7-1.5-2.9,0c-1.7,12.4-3.5,24.8-5.2,37.2c1,0.1,2,0.3,2.9,0.4
				c0.4-7.1,0.8-14.2,1.1-21.3c0.1-1.7-2.6-2.1-2.9-0.4c-2.4,11.7-4.8,23.4-7.2,35.1c-0.4,1.9,2.4,2.7,2.9,0.8
				c2-7.9,3.9-15.8,5.9-23.7c0.5-1.9-2.2-2.6-2.9-0.8c-3.8,9.7-7.6,19.4-11.3,29c-0.6,1.6,1.9,2.5,2.7,1.2
				c4.5-7.1,8.9-14.2,13.4-21.3c-0.9-0.5-1.7-1-2.6-1.5c-5.7,12.1-11.4,24.3-17.1,36.4c-0.8,1.7,1.7,3.3,2.6,1.5
				c5.8-11.8,11.6-23.5,17.4-35.3c-0.9-0.5-1.7-1-2.6-1.5c-4.3,9.4-8.7,18.8-13,28.2c-0.8,1.7,1.7,3.2,2.6,1.5
				c5.8-11,11.5-22.1,17.3-33.1c-0.9-0.5-1.7-1-2.6-1.5c-4.8,10.7-9.6,21.4-14.3,32.1c-0.8,1.7,1.8,3.3,2.6,1.5
				c4.4-9.3,8.8-18.7,13.2-28c-0.9-0.4-1.8-0.8-2.7-1.2c-4.1,9.8-8.3,19.7-12.4,29.5c1,0.3,1.9,0.5,2.9,0.8
				c3.4-9.1,6.8-18.2,10.2-27.4c-1-0.3-1.9-0.5-2.9-0.8c-1.4,6.9-2.8,13.8-4.2,20.6c1,0.1,2,0.3,2.9,0.4c-0.2-15.5-0.5-31-0.7-46.5
				c-0.9,0.3-1.9,0.5-2.8,0.8c3.3,5.1,6.6,10.1,9.9,15.2c0.9,1.3,3.4,0.5,2.7-1.2c-3.6-9.4-7.2-18.9-10.9-28.3
				c-0.9,0.4-1.8,0.8-2.7,1.2c2.6,4.2,5.3,8.4,7.9,12.6c0.9,1.4,3.4,0.5,2.7-1.2c-2.6-6.6-5.3-13.3-7.9-19.9
				c-0.7-1.8-3.4-1.1-2.9,0.8c1.9,7,3.7,14.1,5.6,21.1c1-0.3,1.9-0.5,2.9-0.8c-1.9-5.7-3.8-11.3-5.7-17c-0.5-1.5-3.2-1.4-2.9,0.4
				c1.1,8.9,2.2,17.9,3.4,26.8c0.2,1.9,3.1,2,3,0c-0.1-2.7-0.2-5.5-0.3-8.2c-0.1-1.9-2.9-1.9-3,0c-0.9,22.9-10.9,44.6-27.7,60.1
				c-1.4,1.3,0.7,3.4,2.1,2.1c7.8-7.2,15.6-14.3,23.4-21.5c-0.8-0.6-1.6-1.2-2.4-1.8c-7.1,12-16.3,22.3-27.6,30.5
				c0.6,0.8,1.2,1.6,1.8,2.4c7.3-8.3,14.6-16.7,21.9-25c1-1.2-0.4-3.5-1.8-2.4c-11.2,8.6-22.5,17.2-33.7,25.7
				c0.6,0.8,1.2,1.6,1.8,2.4c11.2-8.9,22.4-17.8,33.6-26.6c1.4-1.1-0.4-3.2-1.8-2.4c-16.8,9.7-33.7,19.4-50.5,29.2
				c-1.5,0.9-0.5,3.1,1.2,2.7c18.5-3.5,36-10.2,52.2-19.7c1.4-0.8,0.5-3.3-1.2-2.7c-16.9,5.6-33.7,11.2-50.6,16.9
				c0.3,1,0.5,1.9,0.8,2.9c14-4.8,27.9-9.5,41.9-14.3c-0.4-0.9-0.8-1.8-1.2-2.7c-12.9,6.2-25.9,12.4-38.8,18.6
				c-1.7,0.8-0.2,3.4,1.5,2.6c15-7,30-14,44.9-21c1.8-0.8,0.2-3.3-1.5-2.6c-13.9,5.9-27.7,11.8-41.6,17.7c-1.6,0.7-0.5,2.6,0.8,2.8
				c14.8,2,29.4-2.5,40.6-12.3c1.2-1-0.1-2.8-1.5-2.5c-13.4,3.3-26.7,6.5-40.1,9.8c-1.6,0.4-1.3,3,0.4,2.9
				c14.7-0.2,28.8-4.3,41.3-12c1.2-0.7,0.8-3-0.8-2.8c-13.9,1.8-27.2,5.9-39.7,12.3c-1.5,0.8-0.5,3.2,1.2,2.7
				c19.1-4.9,36.2-15.4,49.3-30.2c1.3-1.5-0.6-3.3-2.1-2.1c-14,11.2-28.1,22.4-42.1,33.5c-1.5,1.2,0.6,3.3,2.1,2.1
				c12.4-9.8,24.8-19.5,37.2-29.3c1.3-1-0.4-3.4-1.8-2.4c-12.3,9.1-24.6,18.2-36.8,27.3c0.6,0.8,1.2,1.6,1.8,2.4
				c11.2-9.5,22.3-19,33.5-28.5c1.5-1.3-0.7-3.3-2.1-2.1c-10.4,8.7-20.8,17.4-31.3,26.1c0.7,0.7,1.4,1.4,2.1,2.1
				c9.7-8.8,19.3-17.7,29-26.5c-0.7-0.7-1.4-1.4-2.1-2.1c-8.8,9.5-17.6,19-26.5,28.5c-1.1,1.2,0.3,3.3,1.8,2.4
				c10.9-7.4,21.8-14.7,32.8-22.1c-0.5-0.9-1-1.7-1.5-2.6c-12.4,8.9-24.9,17.7-37.3,26.6c-1.6,1.1-0.1,3.7,1.5,2.6
				c12.2-8.4,24.4-16.7,36.5-25.1c1.6-1.1,0.2-3.6-1.5-2.6c-18.3,10.6-38.4,17.2-59.4,19.4c-1.6,0.2-2.1,2.4-0.4,2.9
				c12.1,3.7,25,1.8,35.6-5.1c1.2-0.8,0.8-2.9-0.8-2.8c-13,1-26,2-39,3c-1.7,0.1-2.1,2.4-0.4,2.9c18.5,6.1,38.5,4.6,55.9-4.1
				c1.7-0.8,0.4-3-1.2-2.7c-12.3,1.7-24.6,3.4-36.9,5.1c-1.7,0.2-1.3,3.1,0.4,2.9c18.9-1.7,35.8-12.3,45.5-28.7
				c0.9-1.6-1.1-2.8-2.4-1.8c-10.9,8.5-21.9,17-32.8,25.5c0.7,0.7,1.4,1.4,2.1,2.1c15.2-14.1,31.1-28.9,39.4-48.3
				c7.1-16.7,8.1-36.6-2-52.3c-0.8,0.6-1.6,1.2-2.4,1.8c5.5,7.1,11.1,14.2,16.6,21.3c0.7-0.7,1.4-1.4,2.1-2.1
				c-5.6-5.7-11.1-11.4-16.7-17c-0.8-0.8-2.7-0.3-2.6,1.1c0.2,1.7,0.4,3.3,0.6,5c0.8-0.4,1.5-0.9,2.3-1.3
				c-7.8-5.7-15.6-11.4-23.4-17.1c-0.4,0.9-0.8,1.8-1.2,2.7c4.8,1.6,9.5,3.1,14.3,4.7c1.9,0.6,2.6-2.2,0.8-2.9
				c-16.6-6.4-34.2-8.2-51.8-5.3c-1.7,0.3-1.2,2.9,0.4,2.9c8,0.1,16,0.1,23.9,0.2c1.6,0,2.1-2.7,0.4-2.9c-5.7-0.9-11.4-1.8-17.1-2.7
				c0,1,0,1.9,0,2.9c23-3.1,46.5,4.1,63.8,19.5c0.6-0.8,1.2-1.6,1.8-2.4c-11.2-5.3-22.5-10.7-33.7-16c-1.5-0.7-3.1,1.1-1.8,2.4
				c7.5,7.8,15,15.7,22.5,23.5c1.2,1.3,3-0.3,2.4-1.8c-1.7-3.7-3.4-7.3-5.1-11c-0.9,0.5-1.7,1-2.6,1.5c2.8,4.9,5.7,9.9,8.5,14.8
				c0.8-0.6,1.6-1.2,2.4-1.8c-3.7-4.7-7.5-9.4-11.2-14.1c-0.7,0.7-1.4,1.4-2.1,2.1c6,5.4,12,10.9,17.9,16.3c1,1,3,0,2.5-1.5
				c-5.5-16.7-20.2-29.6-37.7-32c-21.8-3-41.8,9.7-59.2,21.1c0.6,0.8,1.2,1.6,1.8,2.4c12.1-10.4,24.2-20.9,36.3-31.3
				c1.3-1.1-0.4-3.3-1.8-2.4c-8.8,5.7-17.5,11.4-26.3,17.1c-3.7,2.4-10,6.7-6.6,11.9c3.5,5.3,10.4-0.2,13.8-2.6
				c8.4-6,16.9-12.1,25.3-18.1c-0.6-0.8-1.2-1.6-1.8-2.4c-7.4,9-14.8,18-22.3,27c-1.2,1.5,0.6,3.4,2.1,2.1
				c12.5-10.5,25-21.1,37.6-31.6c1.5-1.3-0.6-3.3-2.1-2.1c-17.4,13.7-34.9,27.3-52.3,41c0.7,0.7,1.4,1.4,2.1,2.1
				c10.1-12.2,20.3-24.4,30.4-36.6c1.2-1.5-0.8-3.6-2.1-2.1c-8.6,10-17.3,20-25.9,30c-1.3,1.5,0.7,3.5,2.1,2.1
				c9.4-8.8,18.8-17.6,28.3-26.4c-0.7-0.7-1.4-1.4-2.1-2.1c-11.6,13.9-23.2,27.8-34.8,41.7c-1.2,1.5,0.8,3.5,2.1,2.1
				c11.8-12.2,23.6-24.3,35.4-36.5c1.1-1.2-0.4-3.4-1.8-2.4c-13.7,10.5-25.5,23.1-34.8,37.6c-0.9,1.4,1.2,3,2.4,1.8
				c13.4-13.6,26.7-27.3,40.1-40.9c-0.7-0.7-1.4-1.4-2.1-2.1c-10.8,12.2-21.7,24.5-32.5,36.7c-1.3,1.4,0.8,3.5,2.1,2.1
				c12.7-13.1,25.3-26.2,38-39.3c-0.7-0.7-1.4-1.4-2.1-2.1c-8.6,10.8-17.2,21.5-25.8,32.3c-1.2,1.5,0.8,3.5,2.1,2.1
				c11-11.5,22.1-23,33.1-34.5c-0.8-0.6-1.6-1.2-2.4-1.8c-7.7,10.8-15.5,21.5-23.2,32.3c-1,1.4,1.2,3.1,2.4,1.8
				c8.2-9.2,16.4-18.3,24.5-27.5c-0.7-0.7-1.4-1.4-2.1-2.1c-3.5,4.6-7.1,9.1-10.6,13.7c0.8,0.6,1.6,1.2,2.4,1.8
				c6-10.6,20.4-10.8,26.7-0.4c0.4-0.8,0.9-1.5,1.3-2.3c-5.7-0.5-10-4.9-10.5-10.5c-0.6,0.5-1.3,1-1.9,1.4c9.5,4,18.1,9.6,25.6,16.7
				c0.6-0.8,1.2-1.6,1.8-2.4c-10.4-5.3-20.8-10.7-31.2-16c-1.5-0.8-3,1.1-1.8,2.4c7.4,7.6,14.9,15.3,22.3,22.9
				c1.4,1.4,3.4-0.7,2.1-2.1c-5-5.4-10-10.8-15-16.2c-0.6,0.8-1.2,1.6-1.8,2.4c6.2,4.6,12.4,9.2,18.5,13.8c1.4,1,3.2-1.3,1.8-2.4
				c-5.3-4.2-10.7-8.3-16-12.5c-1.5-1.2-3.6,0.9-2.1,2.1c8,6.6,16.1,13.2,24.1,19.8c1.2,1,3.3-0.3,2.4-1.8
				c-3.6-5.8-7.2-11.6-10.8-17.4c-0.8,0.6-1.6,1.2-2.4,1.8c4.9,5.9,9.7,11.9,14.6,17.8c0.6-0.8,1.2-1.6,1.8-2.4
				c-8.1-6-16.3-11.9-24.4-17.9c-1.4-1-3.1,1.2-1.8,2.4c5.8,5.2,11.6,10.4,17.4,15.6c1.5,1.3,3.3-0.6,2.1-2.1
				c-4.2-5.2-8.5-10.5-12.7-15.7c-1.1-1.4-3.1,0.4-2.4,1.8c4.7,8.7,9.5,17.3,14.2,26c0.8,1.5,3.3,0.5,2.7-1.2c-1.7-5-3.4-10-5.1-15
				c-1,0.3-1.9,0.5-2.9,0.8c3.1,7.9,6.2,15.7,9.3,23.6c0.9-0.4,1.8-0.8,2.7-1.2c-5-7.1-10-14.3-14.9-21.4c-1.1-1.6-3.7-0.1-2.6,1.5
				c5,7.1,10,14.3,14.9,21.4c0.9,1.3,3.4,0.5,2.7-1.2c-3.1-7.9-6.2-15.7-9.3-23.6c-0.7-1.8-3.5-1.1-2.9,0.8c1.7,5,3.4,10,5.1,15
				c0.9-0.4,1.8-0.8,2.7-1.2c-4.7-8.7-9.5-17.3-14.2-26c-0.8,0.6-1.6,1.2-2.4,1.8c4.2,5.2,8.5,10.5,12.7,15.7
				c0.7-0.7,1.4-1.4,2.1-2.1c-5.8-5.2-11.6-10.4-17.4-15.6c-0.6,0.8-1.2,1.6-1.8,2.4c8.1,6,16.3,11.9,24.4,17.9
				c1.5,1.1,2.8-1.1,1.8-2.4c-4.9-5.9-9.7-11.9-14.6-17.8c-1.1-1.3-3.2,0.4-2.4,1.8c3.6,5.8,7.2,11.6,10.8,17.4
				c0.8-0.6,1.6-1.2,2.4-1.8c-8-6.6-16.1-13.2-24.1-19.8c-0.7,0.7-1.4,1.4-2.1,2.1c5.3,4.2,10.7,8.3,16,12.5
				c0.6-0.8,1.2-1.6,1.8-2.4c-6.2-4.6-12.4-9.2-18.5-13.8c-1.4-1.1-2.9,1.2-1.8,2.4c5,5.4,10,10.8,15,16.2c0.7-0.7,1.4-1.4,2.1-2.1
				c-7.4-7.6-14.9-15.3-22.3-22.9c-0.6,0.8-1.2,1.6-1.8,2.4c10.4,5.3,20.8,10.7,31.2,16c1.5,0.8,3.1-1.1,1.8-2.4
				c-7.9-7.5-16.9-13.3-26.9-17.5c-0.9-0.4-2,0.6-1.9,1.4c0.7,7.4,6.1,12.9,13.5,13.5c1.2,0.1,1.8-1.3,1.3-2.3
				c-7.4-12.3-24.8-12.2-31.9,0.4c-0.8,1.4,1.3,3.2,2.4,1.8c3.5-4.6,7.1-9.1,10.6-13.7c1.1-1.5-0.8-3.6-2.1-2.1
				c-8.2,9.2-16.4,18.3-24.5,27.5c0.8,0.6,1.6,1.2,2.4,1.8c7.7-10.8,15.5-21.5,23.2-32.3c1-1.4-1.2-3-2.4-1.8
				c-11,11.5-22.1,23-33.1,34.5c0.7,0.7,1.4,1.4,2.1,2.1c8.6-10.8,17.2-21.5,25.8-32.3c1.2-1.5-0.7-3.5-2.1-2.1
				c-12.7,13.1-25.3,26.2-38,39.3c0.7,0.7,1.4,1.4,2.1,2.1c10.8-12.2,21.7-24.5,32.5-36.7c1.3-1.4-0.8-3.5-2.1-2.1
				c-13.4,13.6-26.7,27.3-40.1,40.9c0.8,0.6,1.6,1.2,2.4,1.8c9.1-14.1,20.4-26.4,33.7-36.5c-0.6-0.8-1.2-1.6-1.8-2.4
				c-11.8,12.2-23.6,24.3-35.4,36.5c0.7,0.7,1.4,1.4,2.1,2.1c11.6-13.9,23.2-27.8,34.8-41.7c1.2-1.5-0.7-3.5-2.1-2.1
				c-9.4,8.8-18.8,17.6-28.3,26.4c0.7,0.7,1.4,1.4,2.1,2.1c8.6-10,17.3-20,25.9-30c-0.7-0.7-1.4-1.4-2.1-2.1
				c-10.1,12.2-20.3,24.4-30.4,36.6c-1.3,1.5,0.6,3.3,2.1,2.1c17.4-13.7,34.9-27.3,52.3-41c-0.7-0.7-1.4-1.4-2.1-2.1
				c-12.5,10.5-25,21.1-37.6,31.6c0.7,0.7,1.4,1.4,2.1,2.1c7.4-9,14.8-18,22.3-27c1-1.2-0.3-3.4-1.8-2.4
				c-5.3,3.8-10.5,7.5-15.8,11.3c-2.6,1.9-5.3,3.8-7.9,5.7c-1.2,0.9-6.2,5.5-8,5.2c-1.1-1.3-2.1-2.5-3.2-3.8
				c0.8-0.8,1.7-1.6,2.5-2.5c1.4-1.1,3-2,4.5-2.9c2.5-1.6,4.9-3.2,7.4-4.8c5.7-3.7,11.5-7.5,17.2-11.2c-0.6-0.8-1.2-1.6-1.8-2.4
				c-12.1,10.4-24.2,20.9-36.3,31.3c-1.3,1.1,0.4,3.3,1.8,2.4c15.8-10.4,33.6-21.9,53.3-21.1c17.9,0.8,33.7,13.3,39.3,30.2
				c0.8-0.5,1.7-1,2.5-1.5c-6-5.4-12-10.9-17.9-16.3c-1.5-1.3-3.3,0.6-2.1,2.1c3.7,4.7,7.5,9.4,11.2,14.1c1.1,1.4,3.2-0.4,2.4-1.8
				c-2.8-4.9-5.7-9.9-8.5-14.8c-1-1.7-3.4-0.2-2.6,1.5c1.7,3.7,3.4,7.3,5.1,11c0.8-0.6,1.6-1.2,2.4-1.8c-7.5-7.8-15-15.7-22.5-23.5
				c-0.6,0.8-1.2,1.6-1.8,2.4c11.2,5.3,22.5,10.7,33.7,16c1.4,0.7,3.2-1.1,1.8-2.4c-18.2-16.2-42.6-23.6-66.7-20.3
				c-1.4,0.2-1.4,2.7,0,2.9c5.7,0.9,11.4,1.8,17.1,2.7c0.1-1,0.3-2,0.4-2.9c-8-0.1-16-0.1-23.9-0.2c0.1,1,0.3,2,0.4,2.9
				c17-2.8,34.1-0.9,50.2,5.3c0.3-1,0.5-1.9,0.8-2.9c-4.8-1.6-9.5-3.1-14.3-4.7c-1.7-0.6-2.4,1.8-1.2,2.7
				c7.8,5.7,15.6,11.4,23.4,17.1c0.9,0.6,2.4-0.2,2.3-1.3c-0.2-1.7-0.4-3.3-0.6-5c-0.9,0.4-1.7,0.7-2.6,1.1
				c5.6,5.7,11.1,11.4,16.7,17c1.4,1.4,3.3-0.6,2.1-2.1c-5.5-7.1-11.1-14.2-16.6-21.3c-1-1.3-3.3,0.4-2.4,1.8
				c10.4,16.2,8.4,37,0,53.6c-8.7,17.2-23.1,30.5-37,43.4c-1.5,1.3,0.6,3.3,2.1,2.1c10.9-8.5,21.9-17,32.8-25.5
				c-0.8-0.6-1.6-1.2-2.4-1.8c-9.1,15.3-25.1,25.5-42.9,27.2c0.1,1,0.3,2,0.4,2.9c12.3-1.7,24.6-3.4,36.9-5.1
				c-0.4-0.9-0.8-1.8-1.2-2.7c-16.7,8.4-35.9,9.7-53.6,3.8c-0.1,1-0.3,2-0.4,2.9c13-1,26-2,39-3c-0.3-0.9-0.5-1.9-0.8-2.8
				c-10,6.5-21.9,8.2-33.3,4.8c-0.1,1-0.3,2-0.4,2.9c21.6-2.2,42.2-9,60.9-19.8c-0.5-0.9-1-1.7-1.5-2.6
				c-12.2,8.4-24.4,16.7-36.5,25.1c0.5,0.9,1,1.7,1.5,2.6c12.4-8.9,24.9-17.7,37.3-26.6c1.5-1.1,0.1-3.7-1.5-2.6
				c-10.9,7.4-21.8,14.7-32.8,22.1c0.6,0.8,1.2,1.6,1.8,2.4c8.8-9.5,17.6-19,26.5-28.5c1.3-1.4-0.7-3.4-2.1-2.1
				c-9.7,8.8-19.3,17.7-29,26.5c-1.4,1.3,0.7,3.3,2.1,2.1c10.4-8.7,20.8-17.4,31.3-26.1c-0.7-0.7-1.4-1.4-2.1-2.1
				c-11.2,9.5-22.3,19-33.5,28.5c-1.3,1.1,0.4,3.4,1.8,2.4c12.3-9.1,24.6-18.2,36.8-27.3c-0.6-0.8-1.2-1.6-1.8-2.4
				c-12.4,9.8-24.8,19.5-37.2,29.3c0.7,0.7,1.4,1.4,2.1,2.1c14-11.2,28.1-22.4,42.1-33.5c-0.7-0.7-1.4-1.4-2.1-2.1
				c-12.7,14.4-29.3,24.6-48,29.4c0.4,0.9,0.8,1.8,1.2,2.7c12-6.2,24.8-10.2,38.2-11.9c-0.3-0.9-0.5-1.9-0.8-2.8
				c-12,7.5-25.6,11.4-39.7,11.6c0.1,1,0.3,2,0.4,2.9c13.4-3.3,26.7-6.5,40.1-9.8c-0.5-0.8-1-1.7-1.5-2.5
				c-10.6,9.3-24.5,13.3-38.5,11.4c0.3,0.9,0.5,1.9,0.8,2.8c13.9-5.9,27.7-11.8,41.6-17.7c-0.5-0.9-1-1.7-1.5-2.6
				c-15,7-30,14-44.9,21c0.5,0.9,1,1.7,1.5,2.6c12.9-6.2,25.9-12.4,38.8-18.6c1.5-0.7,0.5-3.3-1.2-2.7c-14,4.8-27.9,9.5-41.9,14.3
				c-1.8,0.6-1,3.5,0.8,2.9c16.9-5.6,33.7-11.2,50.6-16.9c-0.4-0.9-0.8-1.8-1.2-2.7c-16,9.4-33.3,15.9-51.5,19.4
				c0.4,0.9,0.8,1.8,1.2,2.7c16.8-9.7,33.7-19.4,50.5-29.2c-0.6-0.8-1.2-1.6-1.8-2.4c-11.2,8.9-22.4,17.8-33.6,26.6
				c-1.3,1,0.5,3.4,1.8,2.4c11.2-8.6,22.5-17.2,33.7-25.7c-0.6-0.8-1.2-1.6-1.8-2.4c-7.3,8.3-14.6,16.7-21.9,25
				c-1,1.2,0.4,3.4,1.8,2.4c11.6-8.5,21.3-19.1,28.6-31.6c0.9-1.5-1.1-3-2.4-1.8c-7.8,7.2-15.6,14.3-23.4,21.5
				c0.7,0.7,1.4,1.4,2.1,2.1c17.5-16.1,27.7-38.6,28.6-62.3c-1,0-2,0-3,0c0.1,2.7,0.2,5.5,0.3,8.2c1,0,2,0,3,0
				c-1.1-8.9-2.2-17.9-3.4-26.8c-1,0.1-2,0.3-2.9,0.4c1.9,5.7,3.8,11.3,5.7,17c0.6,1.8,3.4,1.1,2.9-0.8c-1.9-7-3.7-14.1-5.6-21.1
				c-1,0.3-1.9,0.5-2.9,0.8c2.6,6.6,5.3,13.3,7.9,19.9c0.9-0.4,1.8-0.8,2.7-1.2c-2.6-4.2-5.3-8.4-7.9-12.6c-0.9-1.4-3.4-0.5-2.7,1.2
				c3.6,9.4,7.2,18.9,10.9,28.3c0.9-0.4,1.8-0.8,2.7-1.2c-3.3-5.1-6.6-10.1-9.9-15.2c-0.8-1.2-2.8-0.8-2.8,0.8
				c0.2,15.5,0.5,31,0.7,46.5c0,1.6,2.6,2.1,2.9,0.4c1.4-6.9,2.8-13.8,4.2-20.6c0.4-1.9-2.2-2.6-2.9-0.8
				c-3.4,9.1-6.8,18.2-10.2,27.4c-0.7,1.8,2.2,2.5,2.9,0.8c4.1-9.8,8.3-19.7,12.4-29.5c0.7-1.6-2-2.7-2.7-1.2
				c-4.4,9.3-8.8,18.7-13.2,28c0.9,0.5,1.7,1,2.6,1.5c4.8-10.7,9.6-21.4,14.3-32.1c0.8-1.7-1.7-3.3-2.6-1.5
				c-5.8,11-11.5,22.1-17.3,33.1c0.9,0.5,1.7,1,2.6,1.5c4.3-9.4,8.7-18.8,13-28.2c0.8-1.7-1.7-3.3-2.6-1.5
				c-5.8,11.8-11.6,23.5-17.4,35.3c0.9,0.5,1.7,1,2.6,1.5c5.7-12.1,11.4-24.3,17.1-36.4c0.8-1.7-1.6-3.2-2.6-1.5
				c-4.5,7.1-8.9,14.2-13.4,21.3c0.9,0.4,1.8,0.8,2.7,1.2c3.8-9.7,7.6-19.4,11.3-29c-1-0.3-1.9-0.5-2.9-0.8
				c-2,7.9-3.9,15.8-5.9,23.7c1,0.3,1.9,0.5,2.9,0.8c2.4-11.7,4.8-23.4,7.2-35.1c-1-0.1-2-0.3-2.9-0.4c-0.4,7.1-0.8,14.2-1.1,21.3
				c-0.1,1.7,2.7,2.1,2.9,0.4c1.7-12.4,3.5-24.8,5.2-37.2c-1,0-1.9,0-2.9,0c2.1,9.2,4.2,18.3,6.3,27.5c0.4,1.9,3.3,1.1,2.9-0.8
				c-1.5-7.5-3-15.1-4.6-22.6c-0.3-1.6-3.2-1.3-2.9,0.4c0.7,5.7,1.4,11.3,2.2,17c0.2,1.9,3.2,1.9,3,0c-0.6-6.3-1.3-12.6-1.9-18.9
				c-0.2-1.9-3.2-1.9-3,0c0.7,6.8,1.3,13.6,2,20.4c1-0.1,2-0.3,2.9-0.4c-1.9-6.1-3.7-12.2-5.6-18.3c-0.6-1.8-3.4-1.1-2.9,0.8
				c2,8.2,4,16.4,6,24.6c1-0.3,1.9-0.5,2.9-0.8c-1.9-7.7-3.8-15.4-5.8-23c-0.4-1.6-3.1-1.3-2.9,0.4c1,8.8,2.1,17.6,3.1,26.4
				c1-0.1,2-0.3,2.9-0.4c-2.1-8.7-4.3-17.4-6.4-26.2c-0.4-1.6-3.1-1.3-2.9,0.4c1,8.9,2,17.8,3,26.7c1-0.1,2-0.3,2.9-0.4
				c-1.5-8.3-2.9-16.6-4.4-24.9c-0.3-1.6-3.1-1.3-2.9,0.4c1.1,8.9,2.1,17.9,3.2,26.8c1,0,2,0,3,0c-1.2-8.7-2.3-17.3-3.5-26
				c-0.2-1.8-3.1-2-3,0c0.5,10.5,0.9,21.1,1.4,31.6c0.1,1.9,3,1.9,3,0c-0.2-7.8-0.4-15.5-0.6-23.3c-1,0.1-2,0.3-2.9,0.4
				c1.2,7.2,2.4,14.5,3.6,21.7c0.3,1.8,2.8,1.2,2.9-0.4c0.8-9.2,1.5-18.5,2.3-27.7C737.2,308,734.2,308,734.1,309.9L734.1,309.9z"/>
		</g>
	</g>
	<path class="st2" d="M735.9,323.9c-4.8,35-33.3,71.2-67.6,64.1c-21.2-4.4-25.7-1.3-38.2-15c-0.9-1-16.6-14-17.5-15.1
		c-1-1.3-2-2.6-2.9-4c-0.6-0.9-1.1-1.9-1.4-2.9c-2.7-8.9-3.2-18.2-2-29.7c0.1-0.7,0.5-1.4,1-1.8c10.4-8.7,27.9-5.4,36.5-19.5
		c3.7-6.1,2.4-10,4.2-15.6c2.5-7.7,10.1-16.2,30.9-22.6c1.9-0.6,3.9-0.7,5.9-0.2c2.7,0.6,5.4,1.4,7.9,2.2
		C719.5,273,739.7,296.3,735.9,323.9z"/>
	<ellipse class="st2" cx="604.7" cy="300" rx="4" ry="4"/>
	<ellipse class="st2" cx="615.7" cy="285" rx="2" ry="2"/>
	<ellipse class="st2" cx="628.2" cy="265.5" rx="3.5" ry="3.5"/>
	<ellipse class="st2" cx="631.1" cy="285.5" rx="2.5" ry="2.5"/>
	<ellipse class="st2" cx="645.1" cy="269.5" rx="2.5" ry="2.5"/>
	<ellipse class="st2" cx="661.1" cy="258.5" rx="1.5" ry="1.5"/>
	<ellipse class="st2" cx="611.7" cy="273" rx="2" ry="2"/>
	<ellipse class="st2" cx="619.7" cy="298" rx="2" ry="2"/>
	<ellipse class="st2" cx="652.6" cy="263" rx="2" ry="2"/>
	<ellipse class="st2" cx="633.6" cy="277" rx="4" ry="4"/>
	<ellipse class="st2" cx="620.2" cy="274.5" rx="2.5" ry="2.5"/>
	<ellipse class="st2" cx="604.2" cy="287.5" rx="4.5" ry="4.5"/>
	<ellipse class="st2" cx="595.7" cy="314" rx="3" ry="3"/>
	<ellipse class="st2" cx="630.2" cy="298.5" rx="3.5" ry="3.5"/>
	<ellipse class="st2" cx="638.6" cy="285" rx="1" ry="1"/>
	<ellipse class="st2" cx="618.7" cy="266" rx="1" ry="1"/>
	<ellipse class="st2" cx="637.6" cy="262" rx="1" ry="1"/>
	<ellipse class="st2" cx="613.2" cy="293.5" rx="1.5" ry="1.5"/>
	<ellipse class="st2" cx="622.7" cy="289" rx="1" ry="1"/>
	<ellipse class="st2" cx="609.7" cy="280" rx="1" ry="1"/>
	<ellipse class="st2" cx="597.7" cy="295" rx="1" ry="1"/>
	<ellipse class="st2" cx="595.7" cy="303" rx="1" ry="1"/>
	<polygon class="st2" points="652.6,269 652.6,269 652.6,269 652.6,269 	"/>
	<ellipse class="st2" cx="653.6" cy="268" rx="1" ry="1"/>
	<ellipse class="st2" cx="643.6" cy="277" rx="1" ry="1"/>
	<ellipse class="st2" cx="635.6" cy="291" rx="1" ry="1"/>
	<path class="st1" d="M724.6,239.8l-2.5-2.2c-2.5-2.2-2.7-5.9-0.5-8.4l24.5-27.8c2.2-2.5,5.9-2.7,8.4-0.5l2.5,2.2
		c2.5,2.2,2.7,5.9,0.5,8.4l-24.5,27.8C730.8,241.8,727,242,724.6,239.8z"/>
</g>
<circle class="st2" cx="655.5" cy="256.5" r="1.5"/>
<g>
	<path class="st4" d="M695.2,261.3h-0.1c-0.3,0-0.6,0-0.9,0.1c-0.9,0.2-1.8,0.4-2.7,0.6c1.8-0.2,3.7-0.4,5.5-0.5
		c0.6-0.3,1.2-0.6,1.8-0.9c-1.2,0.2-2.3,0.4-3.5,0.6C695.4,261.3,695.3,261.3,695.2,261.3z"/>
	<path class="st4" d="M687.1,261.3c2-0.9,4-1.7,5.9-2.6C691.1,259.5,689,260.4,687.1,261.3C687.1,261.3,687.1,261.3,687.1,261.3z"/>
	<path class="st4" d="M746.1,279.7c-13-21-34.9-36-60.5-39.8c-0.8-0.1-1.7-0.2-2.5-0.3c-1.4-0.2-2.8-0.3-4.2-0.4
		c-0.7,0-1.4-0.1-2.1-0.1c-0.7,0-1.4,0-2-0.1c-0.6,0-1.2,0-1.7,0c-8.4,0-16.5,1.2-24.2,3.4c-0.9,0.3-1.9,0.6-2.8,0.9
		c-11.6,3.8-22.1,10-30.9,18c-1,0.9-2,1.9-3,2.9c-1,1-1.9,2-2.8,3c-8,8.8-14.2,19.3-18,30.9c-0.3,0.9-0.6,1.8-0.9,2.8
		c-2.2,7.7-3.4,15.8-3.4,24.2c0,0.6,0,1.2,0,1.7c0,0.7,0,1.4,0.1,2c0,0.7,0.1,1.4,0.1,2.1c0.1,1.4,0.2,2.8,0.4,4.2
		c0.1,0.7,0.2,1.3,0.3,2c0.2,1.3,0.4,2.6,0.7,3.9c0,0,0,0,0,0.1c0.1,0.6,0.2,1.2,0.4,1.8c0.3,1.2,0.5,2.3,0.8,3.5
		c0.1,0.5,0.3,1,0.4,1.6c4.5,16.2,13.5,30.5,25.8,41.4c11.9,10.6,26.8,18,43.3,20.6c-16.5-2.7-31.5-10.2-43.5-20.9
		c-8-13.1-12.7-28.5-12.7-45c0-16.5,4.7-31.9,12.7-45c0.7-0.1,1.3-0.7,1.3-1.5c0-0.2,0-0.3-0.1-0.4c4.3-6.6,9.5-12.6,15.5-17.8
		c0,0.1,0,0.1-0.1,0.2c0.5-0.6,1.1-1.2,1.8-1.7c0.3-0.3,0.6-0.5,0.9-0.6c-0.1,0-0.1,0-0.2,0c5.6-4.6,11.8-8.4,18.5-11.4
		c0.4-0.3,0.9-0.5,1.5-0.7c0.1,0,0.2-0.1,0.3-0.1c2.2-1,4.5-1.8,6.9-2.6c0,0,0,0,0,0.1c0.2-0.1,0.3-0.1,0.5-0.2l1.6-0.4
		c0.2-0.1,0.4-0.1,0.6-0.1c0,0,0-0.1-0.1-0.1c7.7-2.3,15.9-3.5,24.4-3.5c21.8,0,41.7,8.1,56.9,21.5c4.7,7.5,8.3,15.8,10.6,24.7
		C754.3,295.4,750.8,287.2,746.1,279.7z"/>
	<path class="st4" d="M757.7,310.1c0.3,1.6,0.5,3.2,0.7,4.8C758.2,313.3,758,311.7,757.7,310.1z"/>
	<path class="st4" d="M757.7,310.1c-0.2-1.4-0.5-2.7-0.8-4.1C757.2,307.3,757.5,308.7,757.7,310.1z"/>
	<path class="st5" d="M696.5,261.6c-0.3-0.1-0.6-0.2-1-0.3c-0.1,0-0.1,0-0.2,0h-0.1c-0.3,0-0.6,0-0.9,0.1c-0.9,0.2-1.8,0.4-2.7,0.6
		C693.2,261.8,694.8,261.7,696.5,261.6z"/>
	<path class="st1" d="M695.2,261.3h-0.1c-0.3,0-0.6,0-0.9,0.1c-0.9,0.2-1.8,0.4-2.7,0.6c1.8-0.2,3.7-0.4,5.5-0.5
		c0.6-0.3,1.2-0.6,1.8-0.9c-1.2,0.2-2.3,0.4-3.5,0.6C695.4,261.3,695.3,261.3,695.2,261.3z"/>
	<path class="st1" d="M687.1,261.3c2-0.9,4-1.7,5.9-2.6C691.1,259.5,689,260.4,687.1,261.3C687.1,261.3,687.1,261.3,687.1,261.3z"/>
	<path class="st1" d="M757.7,310.1c0.3,1.6,0.5,3.2,0.7,4.8C758.2,313.3,758,311.7,757.7,310.1z"/>
	<path class="st1" d="M757.7,310.1c-0.2-1.4-0.5-2.7-0.8-4.1C757.2,307.3,757.5,308.7,757.7,310.1z"/>
	<path class="st1" d="M746.1,279.7c-13-21-34.9-36-60.5-39.8c-0.8-0.1-1.7-0.2-2.5-0.3c-1.4-0.2-2.8-0.3-4.2-0.4
		c-0.7,0-1.4-0.1-2.1-0.1c-0.7,0-1.4,0-2-0.1c-0.6,0-1.2,0-1.7,0c-8.4,0-16.5,1.2-24.2,3.4c-0.9,0.3-1.9,0.6-2.8,0.9
		c-11.6,3.8-22.1,10-30.9,18c-1,0.9-2,1.9-3,2.9c-1,1-1.9,2-2.8,3c-8,8.8-14.2,19.3-18,30.9c-0.3,0.9-0.6,1.8-0.9,2.8
		c-2.2,7.7-3.4,15.8-3.4,24.2c0,0.6,0,1.2,0,1.7c0,0.7,0,1.4,0.1,2c0,0.7,0.1,1.4,0.1,2.1c0.1,1.4,0.2,2.8,0.4,4.2
		c0.1,0.7,0.2,1.3,0.3,2c0.2,1.3,0.4,2.6,0.7,3.9c0,0,0,0,0,0.1c0.1,0.6,0.2,1.2,0.4,1.8c0.3,1.2,0.5,2.3,0.8,3.5
		c0.1,0.5,0.3,1,0.4,1.6c4.5,16.2,13.5,30.5,25.8,41.4c11.9,10.6,26.8,18,43.3,20.6c-16.5-2.7-31.5-10.2-43.5-20.9
		c-8-13.1-12.7-28.5-12.7-45c0-16.5,4.7-31.9,12.7-45c0.7-0.1,1.3-0.7,1.3-1.5c0-0.2,0-0.3-0.1-0.4c4.3-6.6,9.5-12.6,15.5-17.8
		c0,0.1,0,0.1-0.1,0.2c0.5-0.6,1.1-1.2,1.8-1.7c0.3-0.3,0.6-0.5,0.9-0.6c-0.1,0-0.1,0-0.2,0c5.6-4.6,11.8-8.4,18.5-11.4
		c0.4-0.3,0.9-0.5,1.5-0.7c0.1,0,0.2-0.1,0.3-0.1c2.2-1,4.5-1.8,6.9-2.6c0,0,0,0,0,0.1c0.2-0.1,0.3-0.1,0.5-0.2l1.6-0.4
		c0.2-0.1,0.4-0.1,0.6-0.1c0,0,0-0.1-0.1-0.1c7.7-2.3,15.9-3.5,24.4-3.5c21.8,0,41.7,8.1,56.9,21.5c4.7,7.5,8.3,15.8,10.6,24.7
		C754.3,295.4,750.8,287.2,746.1,279.7z"/>
	<path class="st6" d="M695.2,261.3h-0.1c-0.3,0-0.6,0-0.9,0.1c-0.9,0.2-1.8,0.4-2.7,0.6c1.8-0.2,3.7-0.4,5.5-0.5
		c0.6-0.3,1.2-0.6,1.8-0.9c-1.2,0.2-2.3,0.4-3.5,0.6C695.4,261.3,695.3,261.3,695.2,261.3z"/>
	<path class="st6" d="M632.4,279.3c0,0.1,0,0.1-0.1,0.2c0.5-0.6,1.1-1.2,1.8-1.7c0.3-0.3,0.6-0.5,0.9-0.6c-0.1,0-0.1,0-0.2,0
		c5.6-4.6,11.8-8.4,18.5-11.4c0.4-0.3,0.9-0.5,1.5-0.7c0.1,0,0.2-0.1,0.3-0.1c2.2-1,4.5-1.8,6.9-2.6c0,0,0,0,0,0.1
		c0.2-0.1,0.3-0.1,0.5-0.2l1.6-0.4c0.2-0.1,0.4-0.1,0.6-0.1c0,0,0-0.1-0.1-0.1c7.7-2.3,15.9-3.5,24.4-3.5c21.8,0,41.7,8.1,56.9,21.5
		c-13.1-20.9-34.9-35.8-60.2-39.6c-0.8-0.1-1.7-0.2-2.5-0.3c-1.4-0.2-2.8-0.3-4.2-0.4c-0.7,0-1.4-0.1-2.1-0.1c-0.7,0-1.4,0-2-0.1
		c-0.6,0-1.2,0-1.7,0c-8.4,0-16.5,1.2-24.2,3.4c-0.9,0.3-1.9,0.6-2.8,0.9c-11.6,3.8-22.1,10-30.9,18c-1,0.9-2,1.9-3,2.9
		c-1,1-1.9,2-2.8,3c-8,8.8-14.2,19.3-18,30.9c-0.3,0.9-0.6,1.8-0.9,2.8c-2.2,7.7-3.4,15.8-3.4,24.2c0,0.6,0,1.2,0,1.7
		c0,0.7,0,1.4,0.1,2c0,0.7,0.1,1.4,0.1,2.1c0.1,1.4,0.2,2.8,0.4,4.2c0.1,0.7,0.2,1.3,0.3,2c0.2,1.3,0.4,2.6,0.7,3.9c0,0,0,0,0,0.1
		c0.1,0.6,0.2,1.2,0.4,1.8c0.3,1.2,0.5,2.3,0.8,3.5c0.1,0.5,0.3,1,0.4,1.6c4.5,16,13.5,30.2,25.6,41c-8-13.1-12.7-28.5-12.7-45
		c0-16.5,4.7-31.9,12.7-45c0.7-0.1,1.3-0.7,1.3-1.5c0-0.2,0-0.3-0.1-0.4C621.3,290.4,626.5,284.4,632.4,279.3z"/>
	<path class="st6" d="M687.1,261.3c2-0.9,4-1.7,5.9-2.6C691.1,259.5,689,260.4,687.1,261.3C687.1,261.3,687.1,261.3,687.1,261.3z"/>
	<circle class="st2" cx="607" cy="304" r="4"/>
	<circle class="st2" cx="618" cy="289" r="2"/>
	<circle class="st2" cx="630.5" cy="269.5" r="3.5"/>
	<circle class="st2" cx="614" cy="277" r="2"/>
	<circle class="st2" cx="622.5" cy="278.5" r="2.5"/>
	<circle class="st2" cx="606.5" cy="291.5" r="4.5"/>
	<circle class="st2" cx="598" cy="318" r="3"/>
	<circle class="st2" cx="621" cy="270" r="1"/>
	<circle class="st2" cx="640" cy="266" r="1"/>
	<path class="st2" d="M617,297.5c0,0.8-0.5,1.4-1.3,1.5c-0.1,0-0.1,0-0.2,0c-0.8,0-1.5-0.7-1.5-1.5c0-0.8,0.7-1.5,1.5-1.5
		c0.7,0,1.3,0.5,1.4,1.1C617,297.2,617,297.3,617,297.5z"/>
	<circle class="st2" cx="612" cy="284" r="1"/>
	<circle class="st2" cx="600" cy="299" r="1"/>
	<circle class="st2" cx="598" cy="307" r="1"/>
</g>
<path class="st3" d="M235.2,329.3h-0.1c-0.3,0-0.6,0-0.9,0.1c-0.9,0.2-1.8,0.4-2.7,0.6c1.8-0.2,3.7-0.4,5.5-0.5
	c0.6-0.3,1.2-0.6,1.8-0.9c-1.2,0.2-2.3,0.4-3.5,0.6C235.4,329.3,235.3,329.3,235.2,329.3z"/>
<path class="st3" d="M227.1,329.3c2-0.9,4-1.7,5.9-2.6C231.1,327.5,229,328.4,227.1,329.3C227.1,329.3,227.1,329.3,227.1,329.3z"/>
<path class="st3" d="M297.7,378.1c0.3,1.6,0.5,3.2,0.7,4.8C298.2,381.3,298,379.7,297.7,378.1z"/>
<path class="st3" d="M297.7,378.1c-0.2-1.4-0.5-2.7-0.8-4.1C297.2,375.3,297.5,376.7,297.7,378.1z"/>
<g>
	<path class="st3" d="M745.1,276.7c-13-21-34.9-36-60.5-39.8c-0.8-0.1-1.7-0.2-2.5-0.3c-1.4-0.2-2.8-0.3-4.2-0.4
		c-0.7,0-1.4-0.1-2.1-0.1c-0.7,0-1.4,0-2-0.1c-0.6,0-1.2,0-1.7,0c-8.4,0-16.5,1.2-24.2,3.4c-0.9,0.3-1.9,0.6-2.8,0.9
		c-11.6,3.8-22.1,10-30.9,18c-1,0.9-2,1.9-3,2.9c-1,1-1.9,2-2.8,3c-8,8.8-14.2,19.3-18,30.9c-0.3,0.9-0.6,1.8-0.9,2.8
		c-2.2,7.7-3.4,15.8-3.4,24.2c0,0.6,0,1.2,0,1.7c0,0.7,0,1.4,0.1,2c0,0.7,0.1,1.4,0.1,2.1c0.1,1.4,0.2,2.8,0.4,4.2
		c0.1,0.7,0.2,1.3,0.3,2c0.2,1.3,0.4,2.6,0.7,3.9c0,0,0,0,0,0.1c0.1,0.6,0.2,1.2,0.4,1.8c0.3,1.2,0.5,2.3,0.8,3.5
		c0.1,0.5,0.3,1,0.4,1.6c4.5,16.2,13.5,30.5,25.8,41.4c11.9,10.6,26.8,18,43.3,20.6c-16.5-2.7-31.5-10.2-43.5-20.9
		c-8-13.1-12.7-28.5-12.7-45c0-16.5,4.7-31.9,12.7-45c0.7-0.1,1.3-0.7,1.3-1.5c0-0.2,0-0.3-0.1-0.4c4.3-6.6,9.5-12.6,15.5-17.8
		c0,0.1,0,0.1-0.1,0.2c0.5-0.6,1.1-1.2,1.8-1.7c0.3-0.3,0.6-0.5,0.9-0.6c-0.1,0-0.1,0-0.2,0c5.6-4.6,11.8-8.4,18.5-11.4
		c0.4-0.3,0.9-0.5,1.5-0.7c0.1,0,0.2-0.1,0.3-0.1c2.2-1,4.5-1.8,6.9-2.6c0,0,0,0,0,0.1c0.2-0.1,0.3-0.1,0.5-0.2l1.6-0.4
		c0.2-0.1,0.4-0.1,0.6-0.1c0,0,0-0.1-0.1-0.1c7.7-2.3,15.9-3.5,24.4-3.5c21.8,0,41.7,8.1,56.9,21.5c4.7,7.5,8.3,15.8,10.6,24.7
		C753.3,292.4,749.8,284.2,745.1,276.7z"/>
</g>
<rect x="907" y="336" class="st7" width="166" height="354"/>
<text transform="matrix(1.0637 0 0 1 411.0005 578.0488)"><tspan x="0" y="0" class="st8 st9 st10 st11">G</tspan><tspan x="38.3" y="0" class="st12 st9 st10 st11">OO</tspan><tspan x="119.4" y="0" class="st8 st9 st10 st11">D</tspan><tspan x="158.7" y="0" class="st13 st9 st10 st11"> </tspan><tspan x="0" y="63.7" class="st8 st9 st10 st11">MOR</tspan><tspan x="119.7" y="63.7" class="st12 st9 st10 st11">NING</tspan></text>
<rect x="890.7" y="349.8" class="st14" width="15.3" height="301.2"/>
</svg>
