<?xml version="1.0" encoding="utf-8"?>
<!-- Generator: Adobe Illustrator 22.1.0, SVG Export Plug-In . SVG Version: 6.00 Build 0)  -->
<svg version="1.1" id="Layer_1" xmlns="http://www.w3.org/2000/svg" xmlns:xlink="http://www.w3.org/1999/xlink" x="0px" y="0px"
	 viewBox="0 0 1280 800" style="enable-background:new 0 0 1280 800;" xml:space="preserve">
<style type="text/css">
	.st0{fill:#22004C;}
	.st1{fill:#EFC7B0;}
	.st2{fill:#E0ADA6;}
	.st3{fill:#F15A24;}
	.st4{fill:#C2005D;}
	.st5{fill:#FFFFFF;}
	.st6{font-family:'ArialMT';}
	.st7{font-size:12px;}
	.st8{fill:none;stroke:#9D007A;stroke-width:12;stroke-miterlimit:10;}
	.st9{fill:#9D007A;}
</style>
<rect x="531.5" y="526.9" class="st0" width="301" height="251"/>
<path class="st1" d="M806.5,484.1v147.1c0,68.2-55.8,124-124,124s-124-55.8-124-124V484.1c0-68.2,55.8-124,124-124
	c34.1,0,65.1,13.9,87.6,36.4C792.5,419,806.5,450,806.5,484.1z"/>
<ellipse class="st1" cx="1195.6" cy="264" rx="30.9" ry="30.4"/>
<ellipse transform="matrix(1.198442e-02 -0.9999 0.9999 1.198442e-02 916.2972 1457.2474)" class="st2" cx="1195.6" cy="265" rx="13.7" ry="13.9"/>
<ellipse class="st1" cx="929.4" cy="269.3" rx="30.9" ry="30.4"/>
<ellipse transform="matrix(1.198442e-02 -0.9999 0.9999 1.198442e-02 648.7834 1195.4773)" class="st2" cx="929.3" cy="269.4" rx="13.7" ry="13.9"/>
<ellipse class="st1" cx="420.4" cy="264.3" rx="30.9" ry="30.4"/>
<ellipse class="st1" cx="794.4" cy="620.3" rx="30.9" ry="30.4"/>
<ellipse class="st1" cx="568.4" cy="623.3" rx="30.9" ry="30.4"/>
<ellipse transform="matrix(1.198442e-02 -0.9999 0.9999 1.198442e-02 150.8976 681.5598)" class="st2" cx="420.3" cy="264.4" rx="13.7" ry="13.9"/>
<ellipse class="st1" cx="150.4" cy="265.3" rx="30.9" ry="30.4"/>
<ellipse transform="matrix(1.197962e-02 -0.9999 0.9999 1.197962e-02 -116.8583 412.5609)" class="st2" cx="150.3" cy="265.4" rx="13.7" ry="13.9"/>
<path class="st1" d="M1062.1,434.9L1062.1,434.9c-75.3,0-136.9-61.6-136.9-136.9v-91.2c0-75.3,61.6-136.9,136.9-136.9l0,0
	c75.3,0,136.9,61.6,136.9,136.9V298C1199,373.3,1137.4,434.9,1062.1,434.9z"/>
<ellipse class="st0" cx="992.7" cy="221.2" rx="11.1" ry="10.9"/>
<ellipse class="st0" cx="1137.6" cy="221.2" rx="11.1" ry="10.9"/>
<path class="st3" d="M1154.7,205.1h-37.9c-9.7,0-17.6-7.9-17.6-17.6l0,0c0-9.7,7.9-17.6,17.6-17.6h37.9c9.7,0,17.6,7.9,17.6,17.6
	l0,0C1172.3,197.2,1164.4,205.1,1154.7,205.1z"/>
<path class="st3" d="M1011.3,205.1h-37.9c-9.7,0-17.6-7.9-17.6-17.6l0,0c0-9.7,7.9-17.6,17.6-17.6h37.9c9.7,0,17.6,7.9,17.6,17.6
	l0,0C1028.9,197.2,1021,205.1,1011.3,205.1z"/>
<path class="st0" d="M1109,339.5c0,9.8-3.2,18.9-8.6,26.3c-1.3,1.7-2.6,3.3-4.1,4.9c-8.3,8.6-20.1,13.9-33.1,13.9
	s-24.7-5.3-33.1-13.9c-1.5-1.5-2.9-3.2-4.1-4.9c-5.4-7.4-8.6-16.5-8.6-26.3c0-4.7,0.7-9.3,2.1-13.5c5.8-18.3,23.2-31.5,43.7-31.5
	s37.8,13.3,43.7,31.5C1108.3,330.3,1109,334.8,1109,339.5z"/>
<path class="st4" d="M1096.3,370.7c-8.3,8.6-20.1,13.9-33.1,13.9s-24.7-5.3-33.1-13.9c8.3-8.6,20.1-13.9,33.1-13.9
	S1088,362.1,1096.3,370.7z"/>
<path class="st5" d="M1106.9,326h-87.3c5.8-18.3,23.2-31.5,43.7-31.5S1101.1,307.7,1106.9,326z"/>
<g>
	<path class="st3" d="M1108.2,270.3l48.5,47.7c10.6,10.4,10.6,27.3,0,37.7l-2.5,2.4c-10.6,10.4-27.8,10.4-38.3,0l-48.5-47.7
		c-10.6-10.4-10.6-27.3,0-37.7l2.5-2.4C1080.4,259.8,1097.6,259.8,1108.2,270.3z"/>
</g>
<g>
	<path class="st3" d="M1021.3,270.3L972.8,318c-10.6,10.4-10.6,27.3,0,37.7l2.5,2.4c10.6,10.4,27.8,10.4,38.3,0l48.5-47.7
		c10.6-10.4,10.6-27.3,0-37.7l-2.5-2.4C1049,259.8,1031.9,259.8,1021.3,270.3z"/>
</g>
<path class="st2" d="M1063.3,305.7L1063.3,305.7c-14.3,0-25.9-11.6-25.9-25.9v-55.5c0-14.3,11.6-25.9,25.9-25.9l0,0
	c14.3,0,25.9,11.6,25.9,25.9v55.5C1089.2,294.1,1077.6,305.7,1063.3,305.7z"/>
<path class="st1" d="M250,435.5l-91.2-91.3c-18.6-18.7-18.6-49.2,0.1-67.9l91.3-91.2c18.7-18.6,49.2-18.6,67.9,0.1l91.2,91.3
	c18.6,18.7,18.6,49.2-0.1,67.9l-91.3,91.2C299.2,454.2,268.6,454.2,250,435.5z"/>
<g>
	<rect x="145.5" y="97.9" class="st1" width="277" height="218"/>
</g>
<path class="st0" d="M423.5,169.9h-150c-42.9,0-78-35.1-78-78l0,0c0-42.9,35.1-78,78-78h150c42.9,0,78,35.1,78,78l0,0
	C501.5,134.8,466.4,169.9,423.5,169.9z"/>
<circle class="st0" cx="165" cy="157.4" r="65.5"/>
<circle class="st0" cx="230" cy="246.4" r="17.5"/>
<circle class="st0" cx="348" cy="246.4" r="17.5"/>
<path class="st0" d="M372.5,222.9h-48c-6.6,0-12-5.4-12-12l0,0c0-6.6,5.4-12,12-12h48c6.6,0,12,5.4,12,12l0,0
	C384.5,217.5,379.1,222.9,372.5,222.9z"/>
<path class="st0" d="M253.5,218.9h-48c-6.6,0-12-5.4-12-12l0,0c0-6.6,5.4-12,12-12h48c6.6,0,12,5.4,12,12l0,0
	C265.5,213.5,260.1,218.9,253.5,218.9z"/>
<text transform="matrix(1 0 0 1 298.5 155.8709)" class="st6 st7">©</text>
<circle class="st2" cx="302.5" cy="321.9" r="6"/>
<circle class="st2" cx="273.5" cy="321.9" r="6"/>
<g>
	<path class="st2" d="M353.2,351.9c-6.3,32.5-34.9,57-69.2,57s-62.9-24.5-69.2-57H353.2z"/>
</g>
<path class="st0" d="M832.5,469.4v65.5h-26v96.3c0,68.2-55.8,124-124,124s-124-55.8-124-124v-96.3h-27v-65.5
	c0-75.1,61.4-136.5,136.5-136.5h28C771.1,332.9,832.5,394.3,832.5,469.4z"/>
<path class="st1" d="M558.5,643.8V534.9h248v108.9c0,77.1-55.8,140.1-124,140.1S558.5,720.8,558.5,643.8z"/>
<circle class="st8" cx="621.5" cy="607.9" r="50"/>
<circle class="st8" cx="742.5" cy="610.9" r="50"/>
<polygon class="st0" points="671.5,660.9 671.5,660.9 671.5,660.9 "/>
<rect x="671.5" y="602.9" class="st9" width="26" height="17"/>
<path class="st0" d="M621,628.9L621,628.9c-6.4,0-11.5-5.1-11.5-11.5v-19c0-6.4,5.1-11.5,11.5-11.5l0,0c6.4,0,11.5,5.1,11.5,11.5v19
	C632.5,623.8,627.4,628.9,621,628.9z"/>
<path class="st0" d="M743,628.9L743,628.9c-6.4,0-11.5-5.1-11.5-11.5v-19c0-6.4,5.1-11.5,11.5-11.5l0,0c6.4,0,11.5,5.1,11.5,11.5v19
	C754.5,623.8,749.4,628.9,743,628.9z"/>
<circle class="st5" cx="815.5" cy="650.9" r="10"/>
<circle class="st5" cx="558.5" cy="657.9" r="10"/>
<circle class="st2" cx="667.5" cy="669.9" r="6"/>
<circle class="st2" cx="692.5" cy="669.9" r="6"/>
<path class="st0" d="M728,724.5c0,9.8-3.2,18.9-8.6,26.3c-1.3,1.7-2.6,3.3-4.1,4.9c-8.3,8.6-20.1,13.9-33.1,13.9
	s-24.7-5.3-33.1-13.9c-1.5-1.5-2.9-3.2-4.1-4.9c-5.4-7.4-8.6-16.5-8.6-26.3c0-4.7,0.7-9.3,2.1-13.5c5.8-18.3,23.2-31.5,43.7-31.5
	s37.8,13.3,43.7,31.5C727.3,715.3,728,719.8,728,724.5z"/>
<path class="st4" d="M715.3,755.7c-8.3,8.6-20.1,13.9-33.1,13.9s-24.7-5.3-33.1-13.9c8.3-8.6,20.1-13.9,33.1-13.9
	C695.3,741.8,707,747.1,715.3,755.7z"/>
<path class="st5" d="M725.9,709.9h-87.3c5.8-17.9,23.2-30.9,43.7-30.9C702.8,679,720.1,692,725.9,709.9z"/>
<g>
	<g>
		<path class="st1" d="M752.4,691.4c-0.2,0-0.5,0-0.7,0c-0.8,0-1.5,0.7-1.5,1.5s0.7,1.5,1.5,1.5c0.2,0,0.5,0,0.7,0
			c0.8,0,1.5-0.7,1.5-1.5C753.8,692.1,753.2,691.4,752.4,691.4L752.4,691.4z"/>
	</g>
</g>
<g>
	<g>
		<path class="st1" d="M757.9,677.8c-0.2,0.2-0.5,0.5-0.7,0.7c-0.6,0.6-0.6,1.5,0,2.1s1.5,0.6,2.1,0c0.2-0.2,0.5-0.5,0.7-0.7
			c0.6-0.6,0.6-1.5,0-2.1C759.5,677.2,758.5,677.2,757.9,677.8L757.9,677.8z"/>
	</g>
</g>
<g>
	<g>
		<path class="st1" d="M763,684.4c-0.2-0.2-0.5-0.5-0.7-0.7c-0.6-0.6-1.5-0.6-2.1,0s-0.6,1.5,0,2.1c0.2,0.2,0.5,0.5,0.7,0.7
			c0.6,0.6,1.5,0.6,2.1,0C763.6,686,763.6,685,763,684.4L763,684.4z"/>
	</g>
</g>
<g>
	<g>
		<path class="st1" d="M748.7,684c-0.2,0-0.5,0-0.7,0c-0.8,0-1.5,0.7-1.5,1.5s0.7,1.5,1.5,1.5c0.2,0,0.5,0,0.7,0
			c0.8,0,1.5-0.7,1.5-1.5C750.1,684.7,749.5,684,748.7,684L748.7,684z"/>
	</g>
</g>
<g>
	<g>
		<path class="st1" d="M752.8,684.4c-0.2,0.2-0.5,0.5-0.7,0.7c-0.6,0.6-0.6,1.5,0,2.1s1.5,0.6,2.1,0c0.2-0.2,0.5-0.5,0.7-0.7
			c0.6-0.6,0.6-1.5,0-2.1C754.3,683.9,753.3,683.9,752.8,684.4L752.8,684.4z"/>
	</g>
</g>
<g>
	<g>
		<path class="st1" d="M770,695.8c-0.2,0-0.5,0-0.7,0c-0.8,0-1.5,0.7-1.5,1.5s0.7,1.5,1.5,1.5c0.2,0,0.5,0,0.7,0
			c0.8,0,1.5-0.7,1.5-1.5C771.5,696.5,770.9,695.8,770,695.8L770,695.8z"/>
	</g>
</g>
<g>
	<g>
		<path class="st1" d="M747.9,694.4c1.9,0,1.9-3,0-3S746,694.4,747.9,694.4L747.9,694.4z"/>
	</g>
</g>
<g>
	<g>
		<path class="st1" d="M749.4,685.5c-0.2,0-0.5,0-0.7,0c-0.8,0-1.5,0.7-1.5,1.5s0.7,1.5,1.5,1.5c0.2,0,0.5,0,0.7,0
			c0.8,0,1.5-0.7,1.5-1.5S750.2,685.5,749.4,685.5L749.4,685.5z"/>
	</g>
</g>
<g>
	<g>
		<path class="st1" d="M612.6,685.9c-0.2-0.2-0.5-0.5-0.7-0.7c-0.6-0.6-1.5-0.6-2.1,0s-0.6,1.5,0,2.1c0.2,0.2,0.5,0.5,0.7,0.7
			c0.6,0.6,1.5,0.6,2.1,0C613.2,687.5,613.2,686.5,612.6,685.9L612.6,685.9z"/>
	</g>
</g>
<g>
	<g>
		<path class="st1" d="M618.2,683.3c1.9,0,1.9-3,0-3C616.2,680.3,616.2,683.3,618.2,683.3L618.2,683.3z"/>
	</g>
</g>
<g>
	<g>
		<path class="st1" d="M590.1,671.5c0.2,0,0.5,0,0.7,0c0.8,0,1.5-0.7,1.5-1.5s-0.7-1.5-1.5-1.5c-0.2,0-0.5,0-0.7,0
			c-0.8,0-1.5,0.7-1.5,1.5C588.7,670.8,589.3,671.5,590.1,671.5L590.1,671.5z"/>
	</g>
</g>
<g>
	<g>
		<path class="st1" d="M579.1,681.8c1.9,0,1.9-3,0-3C577.1,678.8,577.1,681.8,579.1,681.8L579.1,681.8z"/>
	</g>
</g>
<g>
	<g>
		<path class="st1" d="M602,696.6c0-0.2,0-0.5,0-0.7c0-0.8-0.7-1.5-1.5-1.5s-1.5,0.7-1.5,1.5c0,0.2,0,0.5,0,0.7
			c0,0.8,0.7,1.5,1.5,1.5C601.3,698,602,697.4,602,696.6L602,696.6z"/>
	</g>
</g>
<g>
	<g>
		<path class="st1" d="M621.8,681.1c0,0.2,0,0.5,0,0.7c0,0.8,0.7,1.5,1.5,1.5s1.5-0.7,1.5-1.5c0-0.2,0-0.5,0-0.7
			c0-0.8-0.7-1.5-1.5-1.5S621.8,680.2,621.8,681.1L621.8,681.1z"/>
	</g>
</g>
<g>
	<g>
		<path class="st1" d="M608.6,675.9c1.9,0,1.9-3,0-3C606.6,672.9,606.6,675.9,608.6,675.9L608.6,675.9z"/>
	</g>
</g>
<g>
	<g>
		<path class="st1" d="M598.2,683.3c1.9,0,1.9-3,0-3S596.3,683.3,598.2,683.3L598.2,683.3z"/>
	</g>
</g>
</svg>
