<?xml version="1.0" encoding="utf-8"?>
<!-- Generator: Adobe Illustrator 22.1.0, SVG Export Plug-In . SVG Version: 6.00 Build 0)  -->
<svg version="1.1" id="Layer_1" xmlns="http://www.w3.org/2000/svg" xmlns:xlink="http://www.w3.org/1999/xlink" x="0px" y="0px"
	 viewBox="0 0 1280 800" style="enable-background:new 0 0 1280 800;" xml:space="preserve">
<style type="text/css">
	.st0{fill:#00A651;}
	.st1{fill:#8BC751;}
	.st2{fill:#FFFFFF;}
	.st3{fill:url(#SVGID_1_);}
	.st4{display:none;fill:#8BC751;}
	.st5{opacity:0.6;}
	.st6{fill:url(#SVGID_2_);}
	.st7{fill:url(#SVGID_3_);}
	.st8{fill:url(#SVGID_4_);}
	.st9{fill:url(#SVGID_5_);}
	.st10{fill:url(#SVGID_6_);}
	.st11{fill:url(#SVGID_7_);}
</style>
<path class="st0" d="M999,637.7C710.7,876,397.9,677,321.7,621.6c-9.6-7.1-11.7-20.9-4.4-30.5l0,0l17.8-23.3l20.7-27.1L672,127.1
	c8.9-11.6,26.6-10.8,34.3,1.7l263.8,427l0,0l17.2,27.9l14.7,23.9l1.2,2.1C1009.1,618.8,1007.3,630.8,999,637.7z"/>
<path class="st1" d="M1002.3,607.7c-295.1,247.5-616.8,34-684.9-16.6l17.8-23.3l20.7-27.1l334.6-437.6l279.8,452.9l0,0l17.2,27.9
	L1002.3,607.7z"/>
<path class="st2" d="M987.4,583.8C717,796,428.2,632.1,335.1,567.8l20.7-27.1l334.6-437.6l279.8,452.9l0,0L987.4,583.8z"/>
<linearGradient id="SVGID_1_" gradientUnits="userSpaceOnUse" x1="663.0349" y1="696.9056" x2="663.0349" y2="151.8637" gradientTransform="matrix(1 0 0 -1 0 800)">
	<stop  offset="0" style="stop-color:#F48072"/>
	<stop  offset="0.2462" style="stop-color:#F48072"/>
	<stop  offset="0.5038" style="stop-color:#F47E71"/>
	<stop  offset="0.5966" style="stop-color:#F5776B"/>
	<stop  offset="0.6628" style="stop-color:#F66C62"/>
	<stop  offset="0.7163" style="stop-color:#F85B55"/>
	<stop  offset="0.7621" style="stop-color:#FB4544"/>
	<stop  offset="0.8019" style="stop-color:#FE2A2F"/>
	<stop  offset="0.8179" style="stop-color:#FF1D25"/>
	<stop  offset="1" style="stop-color:#FB4342"/>
	<stop  offset="1" style="stop-color:#FB3F3F"/>
	<stop  offset="1" style="stop-color:#FD3437"/>
	<stop  offset="1" style="stop-color:#FE262C"/>
	<stop  offset="1" style="stop-color:#FF2128"/>
</linearGradient>
<path class="st3" d="M970.2,555.9c-247.6,179.5-506.7,53.5-614.4-15.2l334.6-437.6L970.2,555.9z"/>
<path class="st4" d="M1024,328c0,0-42,61-37,83s30,11,30,11l11-7v-19L1024,328z"/>
<g>
	<g>
		<g>
			<path d="M633.9,323.5c0,0-49.9,85.8-2.9,90S633.9,323.5,633.9,323.5z"/>
			<path d="M639.1,351.6c0,0-34.6,59.3-1.9,62.3C669.7,416.8,639.1,351.6,639.1,351.6z"/>
		</g>
	</g>
	<g class="st5">
		<g>
			<linearGradient id="SVGID_2_" gradientUnits="userSpaceOnUse" x1="610.7997" y1="368.6044" x2="652.6459" y2="368.6044">
				<stop  offset="0" style="stop-color:#F48072"/>
				<stop  offset="0.2462" style="stop-color:#F48072"/>
				<stop  offset="0.5038" style="stop-color:#F47E71"/>
				<stop  offset="0.5966" style="stop-color:#F5776B"/>
				<stop  offset="0.6628" style="stop-color:#F66C62"/>
				<stop  offset="0.7163" style="stop-color:#F85B55"/>
				<stop  offset="0.7621" style="stop-color:#FB4544"/>
				<stop  offset="0.8019" style="stop-color:#FE2A2F"/>
				<stop  offset="0.8179" style="stop-color:#FF1D25"/>
				<stop  offset="1" style="stop-color:#FB4342"/>
				<stop  offset="1" style="stop-color:#FB3F3F"/>
				<stop  offset="1" style="stop-color:#FD3437"/>
				<stop  offset="1" style="stop-color:#FE262C"/>
				<stop  offset="1" style="stop-color:#FF2128"/>
			</linearGradient>
			<path class="st6" d="M633.9,323.5c0,0-49.9,85.8-2.9,90S633.9,323.5,633.9,323.5z"/>
			<path d="M639.1,351.6c0,0-34.6,59.3-1.9,62.3C669.7,416.8,639.1,351.6,639.1,351.6z"/>
		</g>
	</g>
</g>
<g>
	<g>
		<g>
			<path d="M765.4,330.4c0,0-42,85.8-2.5,90C802.4,424.6,765.4,330.4,765.4,330.4z"/>
			<path d="M769.8,358.5c0,0-29.1,59.3-1.6,62.3C795.4,423.6,769.8,358.5,769.8,358.5z"/>
		</g>
	</g>
	<g class="st5">
		<g>
			<linearGradient id="SVGID_3_" gradientUnits="userSpaceOnUse" x1="745.9496" y1="375.4528" x2="781.1176" y2="375.4528">
				<stop  offset="0" style="stop-color:#F48072"/>
				<stop  offset="0.2462" style="stop-color:#F48072"/>
				<stop  offset="0.5038" style="stop-color:#F47E71"/>
				<stop  offset="0.5966" style="stop-color:#F5776B"/>
				<stop  offset="0.6628" style="stop-color:#F66C62"/>
				<stop  offset="0.7163" style="stop-color:#F85B55"/>
				<stop  offset="0.7621" style="stop-color:#FB4544"/>
				<stop  offset="0.8019" style="stop-color:#FE2A2F"/>
				<stop  offset="0.8179" style="stop-color:#FF1D25"/>
				<stop  offset="1" style="stop-color:#FB4342"/>
				<stop  offset="1" style="stop-color:#FB3F3F"/>
				<stop  offset="1" style="stop-color:#FD3437"/>
				<stop  offset="1" style="stop-color:#FE262C"/>
				<stop  offset="1" style="stop-color:#FF2128"/>
			</linearGradient>
			<path class="st7" d="M765.4,330.4c0,0-42,85.8-2.5,90C802.4,424.6,765.4,330.4,765.4,330.4z"/>
			<path d="M769.8,358.5c0,0-29.1,59.3-1.6,62.3C795.4,423.6,769.8,358.5,769.8,358.5z"/>
		</g>
	</g>
</g>
<g>
	<g>
		<g>
			<path d="M723.9,460.6c0,0-49.9,85.8-2.9,90C767.9,554.8,723.9,460.6,723.9,460.6z"/>
			<path d="M729.1,488.7c0,0-34.6,59.3-1.9,62.3C759.7,553.8,729.1,488.7,729.1,488.7z"/>
		</g>
	</g>
	<g class="st5">
		<g>
			<linearGradient id="SVGID_4_" gradientUnits="userSpaceOnUse" x1="700.7643" y1="505.6495" x2="742.6105" y2="505.6495">
				<stop  offset="0" style="stop-color:#F48072"/>
				<stop  offset="0.2462" style="stop-color:#F48072"/>
				<stop  offset="0.5038" style="stop-color:#F47E71"/>
				<stop  offset="0.5966" style="stop-color:#F5776B"/>
				<stop  offset="0.6628" style="stop-color:#F66C62"/>
				<stop  offset="0.7163" style="stop-color:#F85B55"/>
				<stop  offset="0.7621" style="stop-color:#FB4544"/>
				<stop  offset="0.8019" style="stop-color:#FE2A2F"/>
				<stop  offset="0.8179" style="stop-color:#FF1D25"/>
				<stop  offset="1" style="stop-color:#FB4342"/>
				<stop  offset="1" style="stop-color:#FB3F3F"/>
				<stop  offset="1" style="stop-color:#FD3437"/>
				<stop  offset="1" style="stop-color:#FE262C"/>
				<stop  offset="1" style="stop-color:#FF2128"/>
			</linearGradient>
			<path class="st8" d="M723.9,460.6c0,0-49.9,85.8-2.9,90C767.9,554.8,723.9,460.6,723.9,460.6z"/>
			<path d="M729.1,488.7c0,0-34.6,59.3-1.9,62.3C759.7,553.8,729.1,488.7,729.1,488.7z"/>
		</g>
	</g>
</g>
<g>
	<g>
		<g>
			<path d="M838.5,435.5c0,0-49.9,85.8-2.9,90C882.6,529.7,838.5,435.5,838.5,435.5z"/>
			<path d="M843.7,463.6c0,0-34.6,59.3-1.9,62.3C874.3,528.7,843.7,463.6,843.7,463.6z"/>
		</g>
	</g>
	<g class="st5">
		<g>
			<linearGradient id="SVGID_5_" gradientUnits="userSpaceOnUse" x1="815.4061" y1="480.5792" x2="857.2522" y2="480.5792">
				<stop  offset="0" style="stop-color:#F48072"/>
				<stop  offset="0.2462" style="stop-color:#F48072"/>
				<stop  offset="0.5038" style="stop-color:#F47E71"/>
				<stop  offset="0.5966" style="stop-color:#F5776B"/>
				<stop  offset="0.6628" style="stop-color:#F66C62"/>
				<stop  offset="0.7163" style="stop-color:#F85B55"/>
				<stop  offset="0.7621" style="stop-color:#FB4544"/>
				<stop  offset="0.8019" style="stop-color:#FE2A2F"/>
				<stop  offset="0.8179" style="stop-color:#FF1D25"/>
				<stop  offset="1" style="stop-color:#FB4342"/>
				<stop  offset="1" style="stop-color:#FB3F3F"/>
				<stop  offset="1" style="stop-color:#FD3437"/>
				<stop  offset="1" style="stop-color:#FE262C"/>
				<stop  offset="1" style="stop-color:#FF2128"/>
			</linearGradient>
			<path class="st9" d="M838.5,435.5c0,0-49.9,85.8-2.9,90C882.6,529.7,838.5,435.5,838.5,435.5z"/>
			<path d="M843.7,463.6c0,0-34.6,59.3-1.9,62.3C874.3,528.7,843.7,463.6,843.7,463.6z"/>
		</g>
	</g>
</g>
<g>
	<g>
		<g>
			<path d="M551.1,446.5c0,0-49.9,85.8-2.9,90C595.2,540.7,551.1,446.5,551.1,446.5z"/>
			<path d="M556.4,474.6c0,0-34.6,59.3-1.9,62.3C586.9,539.7,556.4,474.6,556.4,474.6z"/>
		</g>
	</g>
	<g class="st5">
		<g>
			<linearGradient id="SVGID_6_" gradientUnits="userSpaceOnUse" x1="528.0353" y1="491.5985" x2="569.8815" y2="491.5985">
				<stop  offset="0" style="stop-color:#F48072"/>
				<stop  offset="0.2462" style="stop-color:#F48072"/>
				<stop  offset="0.5038" style="stop-color:#F47E71"/>
				<stop  offset="0.5966" style="stop-color:#F5776B"/>
				<stop  offset="0.6628" style="stop-color:#F66C62"/>
				<stop  offset="0.7163" style="stop-color:#F85B55"/>
				<stop  offset="0.7621" style="stop-color:#FB4544"/>
				<stop  offset="0.8019" style="stop-color:#FE2A2F"/>
				<stop  offset="0.8179" style="stop-color:#FF1D25"/>
				<stop  offset="1" style="stop-color:#FB4342"/>
				<stop  offset="1" style="stop-color:#FB3F3F"/>
				<stop  offset="1" style="stop-color:#FD3437"/>
				<stop  offset="1" style="stop-color:#FE262C"/>
				<stop  offset="1" style="stop-color:#FF2128"/>
			</linearGradient>
			<path class="st10" d="M551.1,446.5c0,0-49.9,85.8-2.9,90C595.2,540.7,551.1,446.5,551.1,446.5z"/>
			<path d="M556.4,474.6c0,0-34.6,59.3-1.9,62.3C586.9,539.7,556.4,474.6,556.4,474.6z"/>
		</g>
	</g>
</g>
<g>
	<g>
		<g>
			<path d="M689,216c0,0-42.2,72.5-2.5,76S689,216,689,216z"/>
			<path d="M693.5,239.7c0,0-29.2,50.1-1.6,52.6C719.3,294.7,693.5,239.7,693.5,239.7z"/>
		</g>
	</g>
	<g class="st5">
		<g>
			<linearGradient id="SVGID_7_" gradientUnits="userSpaceOnUse" x1="669.5378" y1="254.0374" x2="704.8811" y2="254.0374">
				<stop  offset="0" style="stop-color:#F48072"/>
				<stop  offset="0.2462" style="stop-color:#F48072"/>
				<stop  offset="0.5038" style="stop-color:#F47E71"/>
				<stop  offset="0.5966" style="stop-color:#F5776B"/>
				<stop  offset="0.6628" style="stop-color:#F66C62"/>
				<stop  offset="0.7163" style="stop-color:#F85B55"/>
				<stop  offset="0.7621" style="stop-color:#FB4544"/>
				<stop  offset="0.8019" style="stop-color:#FE2A2F"/>
				<stop  offset="0.8179" style="stop-color:#FF1D25"/>
				<stop  offset="1" style="stop-color:#FB4342"/>
				<stop  offset="1" style="stop-color:#FB3F3F"/>
				<stop  offset="1" style="stop-color:#FD3437"/>
				<stop  offset="1" style="stop-color:#FE262C"/>
				<stop  offset="1" style="stop-color:#FF2128"/>
			</linearGradient>
			<path class="st11" d="M689,216c0,0-42.2,72.5-2.5,76S689,216,689,216z"/>
			<path d="M693.5,239.7c0,0-29.2,50.1-1.6,52.6C719.3,294.7,693.5,239.7,693.5,239.7z"/>
		</g>
	</g>
</g>
</svg>
